<?xml version="1.0" standalone="no"?>
<!DOCTYPE svg PUBLIC "-//W3C//DTD SVG 20010904//EN"
 "http://www.w3.org/TR/2001/REC-SVG-20010904/DTD/svg10.dtd">
<svg version="1.0" xmlns="http://www.w3.org/2000/svg"
 width="600.000000pt" height="750.000000pt" viewBox="0 0 600.000000 750.000000"
 preserveAspectRatio="xMidYMid meet">

<g transform="translate(0.000000,750.000000) scale(0.100000,-0.100000)"
fill="#000000" stroke="none">
<path d="M0 3750 l0 -3750 2840 0 c1768 0 2840 4 2840 9 0 16 -18 22 -26 10
-4 -7 -17 1 -36 22 -17 19 -27 27 -23 19 5 -12 4 -12 -7 1 -7 9 -19 14 -26 12
-7 -3 -10 1 -6 11 3 9 10 13 15 10 5 -3 9 2 9 12 0 13 3 14 15 4 20 -17 45 -5
45 21 0 12 3 19 7 16 3 -4 20 12 37 36 17 23 34 45 39 48 5 3 8 9 8 13 -3 20
3 26 43 45 25 11 47 25 51 31 9 14 -8 13 -23 -2 -15 -15 -27 -3 -13 14 6 7 20
24 31 38 l21 25 -3 -48 c-3 -41 -1 -47 14 -44 10 3 35 -12 65 -40 26 -24 56
-49 66 -54 16 -9 17 167 17 3641 l0 3650 -3000 0 -3000 0 0 -3750z m2936 3535
c-2 -7 16 -11 54 -11 32 1 55 5 52 10 -9 16 176 -2 308 -29 184 -38 399 -112
525 -181 198 -109 388 -231 380 -244 -3 -4 3 -7 13 -6 10 0 16 -5 14 -14 -2
-8 0 -12 3 -8 10 10 92 -58 92 -77 0 -18 -9 -19 -25 -3 -9 9 -15 9 -23 1 -8
-8 -7 -13 2 -18 8 -6 10 -4 4 5 -5 8 -3 11 6 8 8 -3 13 -12 11 -22 -4 -24 11
-20 28 8 l15 24 55 -56 c50 -51 37 -47 -18 6 -12 12 -28 22 -35 22 -8 0 -7 -4
2 -9 12 -8 12 -12 2 -24 -7 -9 -9 -26 -5 -41 8 -34 -12 -34 -23 0 -7 22 -11
24 -21 12 -9 -11 -8 -19 4 -36 8 -12 20 -20 27 -18 6 1 9 1 5 -1 -12 -7 -10
-43 2 -43 6 0 10 -8 10 -17 1 -17 1 -17 14 0 19 24 29 21 24 -8 -7 -33 14 -32
29 2 15 32 2 46 -33 33 -12 -5 -25 -6 -28 -3 -14 15 -3 22 34 21 22 0 40 -4
40 -9 0 -5 8 -9 17 -9 13 0 14 3 5 12 -17 17 -15 33 3 18 20 -17 32 -5 15 15
-21 25 -7 24 18 -1 12 -13 18 -24 11 -24 -6 0 -22 -9 -36 -20 -21 -17 -23 -21
-9 -26 9 -3 16 -12 16 -20 0 -17 -27 -19 -33 -1 -3 7 -6 5 -6 -5 -1 -10 -6
-18 -12 -18 -23 0 4 -20 29 -21 l27 -1 -25 -8 c-17 -5 -19 -8 -7 -9 9 -1 17
-5 17 -10 0 -5 -8 -12 -17 -15 -10 -3 1 -4 25 -2 41 4 60 -9 25 -16 -15 -3
-14 -5 5 -10 15 -4 22 -2 22 8 0 8 5 14 11 14 23 0 1 25 -27 30 l-29 5 36 11
36 11 -3 -53 c-3 -42 -1 -54 10 -54 8 0 18 -9 21 -20 4 -11 10 -18 14 -16 4 3
25 1 46 -5 29 -8 40 -8 46 2 9 15 22 6 25 -17 2 -12 -1 -13 -12 -3 -15 12 -15
12 -18 -50 -1 -36 -10 -46 -33 -35 -16 7 -16 8 5 11 32 6 27 23 -7 23 -26 0
-61 -33 -61 -57 0 -4 4 -2 9 5 11 18 81 5 81 -14 0 -16 -14 -18 -39 -5 -10 6
-23 6 -32 0 -11 -7 -11 -9 4 -9 9 0 17 -5 17 -11 0 -8 13 -9 40 -5 31 5 42 3
46 -9 4 -8 15 -15 25 -15 10 0 19 -5 19 -11 0 -7 11 -9 28 -6 37 8 53 -4 50
-36 -2 -25 -3 -26 -25 -11 -21 13 -24 13 -29 -1 -3 -8 -13 -15 -21 -15 -11 0
-8 6 8 19 28 23 21 34 -21 34 -17 0 -30 3 -30 7 0 8 -51 32 -56 27 -9 -8 19
-66 34 -72 13 -5 13 -3 -2 14 -26 29 -16 46 12 21 13 -12 30 -19 38 -16 7 3
14 1 14 -3 0 -5 -7 -11 -15 -15 -17 -6 -20 -36 -4 -36 7 0 10 -12 7 -30 -3
-16 -1 -30 3 -30 10 0 17 -47 8 -61 -4 -8 -20 -10 -43 -6 -32 5 -35 4 -27 -11
5 -10 7 -30 4 -45 -3 -15 -1 -27 4 -27 4 0 8 -17 8 -39 l0 -39 -55 3 c-30 1
-37 0 -14 -2 31 -3 44 -10 54 -28 13 -24 6 -50 -8 -29 -4 6 -17 10 -29 10 -17
0 -22 -5 -17 -18 3 -10 1 -18 -5 -18 -6 0 -11 -9 -11 -20 0 -13 7 -20 19 -20
19 0 61 -58 61 -86 0 -8 4 -14 9 -14 5 0 11 -10 13 -22 2 -16 9 -22 21 -20 9
2 17 -2 17 -8 0 -5 -4 -10 -10 -10 -13 0 -13 -77 0 -85 5 -3 7 -12 4 -19 -3
-7 11 -25 29 -39 l35 -26 7 22 c4 13 8 17 12 9 2 -6 8 -10 13 -7 10 6 21 -50
14 -70 -6 -15 18 -61 42 -80 7 -5 16 -22 20 -38 5 -24 4 -26 -12 -21 -11 4
-25 11 -31 17 -7 5 -20 7 -28 3 -8 -3 -15 -1 -15 4 0 6 -7 10 -15 10 -8 0 -15
-6 -15 -14 0 -13 -20 -26 -41 -26 -17 0 -9 28 9 33 28 7 -54 38 -102 39 -22 1
-35 3 -28 5 7 3 17 14 23 25 9 17 8 19 -8 15 -10 -3 -48 -2 -85 2 -92 10 -139
3 -145 -20 -6 -21 -18 -25 -28 -9 -3 6 -1 10 4 10 6 0 11 5 11 10 0 6 -7 10
-15 10 -8 0 -15 -7 -15 -15 0 -8 -5 -15 -11 -15 -5 0 -7 4 -4 10 3 5 1 18 -4
27 -8 14 -10 15 -11 3 0 -9 -12 -23 -27 -33 l-28 -18 25 5 c14 3 31 1 39 -3
22 -14 -18 -22 -61 -12 -28 6 -35 6 -32 -4 3 -7 -4 -15 -15 -18 -12 -3 -19
-12 -17 -23 2 -11 1 -14 -1 -9 -2 6 -12 16 -22 22 -15 10 -22 9 -32 -3 -6 -8
-9 -18 -5 -21 4 -4 11 -1 16 7 8 13 10 13 10 -1 0 -18 -26 -33 -41 -23 -5 3
-9 18 -9 35 0 19 -5 29 -15 29 -12 0 -14 7 -9 26 5 18 3 25 -3 21 -6 -4 -18 9
-27 28 -15 31 -20 34 -43 29 -21 -6 -24 -4 -18 7 7 11 6 12 -6 3 -8 -6 -21
-14 -29 -18 -8 -3 -5 -4 8 -2 28 5 28 -8 0 -36 -14 -14 -23 -18 -26 -10 -2 7
-11 12 -20 12 -39 0 -97 28 -97 47 0 10 -6 28 -13 41 -10 18 -17 20 -32 12
-26 -14 -33 -13 -26 5 3 8 -3 19 -12 25 -12 7 -14 12 -5 18 6 4 11 19 9 32 -3
25 -1 25 50 24 46 -1 53 1 63 23 6 13 11 30 11 38 0 18 12 19 28 3 9 -9 12 -8
12 4 0 18 27 32 35 18 4 -6 11 -10 18 -10 8 0 8 3 -1 12 -19 19 -14 49 8 55
12 3 20 14 20 25 0 16 3 18 13 9 8 -6 17 -8 21 -4 4 4 11 1 16 -7 8 -13 10
-13 10 1 0 9 6 22 14 28 20 17 28 54 10 47 -8 -3 -14 1 -14 9 0 12 5 12 26 4
15 -5 29 -8 31 -5 8 7 -54 36 -77 36 -11 0 -20 7 -20 16 0 8 -4 13 -9 9 -14
-8 -99 15 -112 31 -6 8 -19 14 -28 14 -9 0 -21 11 -28 25 -6 14 -7 25 -2 25 5
0 9 4 9 8 0 5 -10 8 -21 8 -30 -1 -41 57 -29 157 3 31 3 57 -2 57 -4 0 -8 -23
-8 -51 0 -64 -19 -56 -21 9 -2 46 -2 46 -9 12 -6 -28 -8 -30 -9 -10 -2 38 -12
70 -22 70 -5 0 -9 -7 -9 -15 0 -25 -17 -17 -22 10 -4 17 -1 25 8 25 8 0 14 7
14 15 0 18 -17 20 -22 3 -3 -7 -9 -8 -18 -3 -10 6 -8 11 11 18 l24 10 -22 4
c-13 3 -23 8 -23 13 0 4 -8 10 -17 14 -10 3 -26 11 -36 18 -13 10 -19 10 -25
1 -9 -14 -82 -13 -82 2 0 7 -10 11 -22 10 -33 -3 -81 51 -67 76 5 10 8 22 7
26 -4 11 24 49 42 56 8 4 3 5 -12 3 -32 -4 -35 2 -12 19 14 10 10 15 -30 33
-25 12 -52 22 -60 22 -8 0 -21 12 -28 28 -7 15 -23 31 -36 37 -12 5 -20 16
-17 22 2 7 -2 13 -10 13 -7 0 -17 9 -20 21 -4 11 -12 18 -18 16 -16 -5 -58 60
-64 100 -3 20 1 46 11 67 20 43 20 57 0 49 -13 -5 -15 -2 -10 15 4 11 2 23 -5
27 -8 6 -8 9 0 14 7 5 -5 18 -30 34 -22 15 -45 24 -51 21 -5 -3 -16 2 -23 12
-13 18 -14 16 -16 -16 -1 -19 -3 -27 -6 -17 -2 9 -11 17 -19 17 -8 0 -14 5
-14 10 0 6 5 10 10 10 6 0 1 9 -10 20 -11 11 -24 20 -28 20 -4 0 -8 -9 -8 -20
0 -11 4 -20 8 -20 4 0 8 -3 8 -7 -1 -11 -69 -40 -110 -47 l-35 -6 38 16 c45
19 44 33 -4 50 -21 8 -27 13 -14 13 14 1 16 4 8 12 -14 14 -73 2 -73 -16 0 -8
17 -16 40 -20 22 -4 40 -11 40 -16 0 -14 -31 -11 -64 6 -15 8 -38 15 -50 16
-20 0 -20 1 -1 9 14 6 15 9 5 10 -9 0 -6 6 10 15 l25 14 -25 1 -25 1 25 11 25
10 -22 11 c-19 8 -23 18 -23 54 0 38 3 43 23 43 18 0 19 -2 7 -11 -12 -8 -12
-10 4 -7 29 5 30 23 1 36 -32 15 -32 25 1 42 17 10 24 20 20 33 -5 20 2 47 13
47 14 0 5 -72 -11 -84 -15 -11 -13 -16 23 -43 l40 -31 -51 -13 c-27 -7 -50
-16 -50 -21 0 -12 48 -9 70 5 17 10 22 9 30 -3 6 -10 8 0 4 30 -3 24 -11 48
-17 52 -9 6 -9 10 1 16 7 5 10 16 6 26 -3 9 -3 16 2 15 5 -1 19 -1 32 0 23 1
32 21 8 21 -17 0 -29 27 -16 35 5 3 22 3 37 0 28 -5 28 -5 3 5 -13 6 -42 8
-63 4 -28 -4 -42 -2 -49 7 -6 8 -11 10 -14 4 -13 -29 -25 -38 -53 -38 -17 0
-34 2 -37 6 -13 13 9 27 43 27 28 0 33 3 25 13 -8 10 -2 12 29 12 24 0 38 -4
35 -10z m-156 -2 c-14 -3 -27 -8 -30 -12 -3 -4 -15 -2 -28 5 -20 10 -17 11 30
11 29 0 42 -2 28 -4z m-85 -13 c7 -11 -9 -11 -45 0 -24 8 -24 8 7 9 17 1 35
-3 38 -9z m-88 -6 c-3 -3 -12 -4 -19 -1 -8 3 -5 6 6 6 11 1 17 -2 13 -5z m178
-4 c-3 -5 -11 -10 -16 -10 -6 0 -7 5 -4 10 3 6 11 10 16 10 6 0 7 -4 4 -10z
m-275 -10 c0 -5 -2 -10 -4 -10 -3 0 -8 5 -11 10 -3 6 -1 10 4 10 6 0 11 -4 11
-10z m222 -37 c7 -9 7 -13 0 -13 -18 0 -34 29 -27 47 7 17 8 16 13 -2 2 -11 9
-26 14 -32z m-285 21 c-3 -3 -12 -4 -19 -1 -8 3 -5 6 6 6 11 1 17 -2 13 -5z
m348 -36 c-4 -14 -3 -18 2 -11 14 20 83 22 83 3 0 -6 -10 -8 -24 -4 -13 3 -33
1 -43 -5 -11 -5 -29 -7 -41 -4 -18 4 -20 9 -11 24 14 28 42 25 34 -3z m-48
-44 c-3 -3 -12 -4 -19 -1 -8 3 -5 6 6 6 11 1 17 -2 13 -5z m73 -12 c0 -12 -23
-32 -37 -32 -19 0 -16 28 5 33 28 8 32 7 32 -1z m-62 -53 c-2 -6 -8 -10 -13
-10 -5 0 -11 4 -13 10 -2 6 4 11 13 11 9 0 15 -5 13 -11z m52 0 c-11 -8 -12
-12 -2 -16 17 -7 15 -23 -3 -23 -9 0 -15 9 -15 25 0 17 5 25 18 25 15 0 15 -2
2 -11z m15 -69 c3 -5 -2 -10 -12 -10 -17 -1 -17 -2 1 -15 16 -12 17 -15 4 -15
-9 0 -19 -7 -22 -16 -3 -8 -10 -13 -15 -10 -9 6 18 76 30 76 5 0 11 -4 14 -10z
m-55 -10 c0 -5 -2 -10 -4 -10 -3 0 -8 5 -11 10 -3 6 -1 10 4 10 6 0 11 -4 11
-10z m137 -116 c-3 -3 -12 -4 -19 -1 -8 3 -5 6 6 6 11 1 17 -2 13 -5z m263
-14 c0 -11 -5 -20 -11 -20 -6 0 -9 -7 -6 -15 7 -17 -9 -30 -18 -14 -4 6 -2 16
4 22 6 6 11 19 11 29 0 10 5 18 10 18 6 0 10 -9 10 -20z m45 -20 c0 -3 4 -11
8 -17 5 -8 4 -13 -2 -13 -13 0 -31 33 -31 57 1 16 2 16 13 -2 6 -11 12 -22 12
-25z m-102 -7 c-7 -2 -19 -2 -25 0 -7 3 -2 5 12 5 14 0 19 -2 13 -5z m37 -53
c0 -5 -2 -10 -4 -10 -3 0 -8 5 -11 10 -3 6 -1 10 4 10 6 0 11 -4 11 -10z m95
-20 c3 -5 2 -10 -4 -10 -5 0 -13 5 -16 10 -3 6 -2 10 4 10 5 0 13 -4 16 -10z
m-52 -17 c-7 -2 -19 -2 -25 0 -7 3 -2 5 12 5 14 0 19 -2 13 -5z m-123 -53 c0
-5 -5 -10 -11 -10 -5 0 -7 5 -4 10 3 6 8 10 11 10 2 0 4 -4 4 -10z m1347 -54
c-4 -10 -1 -13 9 -9 7 3 14 0 14 -6 0 -14 -27 -15 -35 -1 -3 6 -3 15 0 20 9
15 18 12 12 -4z m39 -41 c-16 -17 -36 -20 -36 -6 0 10 17 19 38 20 10 1 10 -3
-2 -14z m129 -65 c4 -6 -1 -7 -11 -3 -13 5 -15 3 -9 -7 5 -9 4 -11 -4 -6 -6 4
-9 12 -6 17 8 12 22 12 30 -1z m19 -26 c9 -3 13 -11 10 -16 -4 -6 0 -14 7 -19
7 -4 10 -11 6 -16 -5 -4 -12 -1 -17 7 -7 11 -11 12 -24 0 -14 -11 -16 -10 -10
4 3 9 1 16 -4 16 -6 0 -14 -9 -17 -20 -7 -21 -25 -28 -25 -10 0 6 5 10 10 10
6 0 10 8 8 17 -2 10 2 18 9 18 6 0 15 3 19 8 9 9 8 9 28 1z m45 -76 c-6 -12
-6 -18 1 -18 5 0 10 5 10 12 0 6 9 3 20 -7 11 -10 20 -23 20 -29 0 -6 -7 -2
-15 8 -8 11 -18 17 -21 13 -4 -4 -1 -13 5 -21 14 -17 5 -60 -10 -50 -6 4 -7
10 0 17 6 8 5 19 -5 31 -9 13 -14 15 -14 6 0 -10 -3 -11 -11 -3 -8 8 -7 17 4
33 9 12 13 30 10 39 -4 13 -3 14 5 2 7 -10 7 -21 1 -33z m-6 -73 c-3 -9 -8
-14 -10 -11 -3 3 -2 9 2 15 9 16 15 13 8 -4z m72 5 c3 -5 1 -10 -4 -10 -6 0
-11 5 -11 10 0 6 2 10 4 10 3 0 8 -4 11 -10z m-1211 -15 c-4 -8 -8 -15 -10
-15 -2 0 -4 7 -4 15 0 8 4 15 10 15 5 0 7 -7 4 -15z m1220 -20 c-4 -8 -16 -15
-28 -15 -20 0 -20 1 4 14 14 8 26 14 27 15 1 1 0 -6 -3 -14z m73 -103 c7 -7
13 -21 12 -30 0 -14 -2 -14 -6 -2 -4 8 -12 21 -20 28 -7 7 -13 21 -12 30 0 14
2 14 6 2 4 -8 12 -21 20 -28z m-40 -14 c-3 -8 -6 -5 -6 6 -1 11 2 17 5 13 3
-3 4 -12 1 -19z m59 -54 c-9 -23 3 -37 19 -24 10 8 15 8 21 -1 4 -7 3 -9 -4
-5 -6 3 -13 2 -17 -4 -3 -5 -10 -10 -15 -10 -12 0 -23 37 -15 50 10 16 18 12
11 -6z m94 -143 c8 -15 8 -21 1 -17 -11 7 -20 -7 -25 -38 -3 -22 -16 -32 -16
-13 0 21 -37 23 -43 2 -4 -11 -4 -10 -3 2 1 12 11 19 29 21 18 2 27 9 27 22 0
19 11 53 15 48 1 -2 8 -14 15 -27z m-45 -11 c-3 -5 -11 -10 -16 -10 -6 0 -7 5
-4 10 3 6 11 10 16 10 6 0 7 -4 4 -10z m-5 -105 c0 -8 -4 -15 -10 -15 -5 0 -7
7 -4 15 4 8 8 15 10 15 2 0 4 -7 4 -15z m-40 -30 c0 -8 -4 -15 -10 -15 -5 0
-10 -7 -10 -16 0 -21 -34 -14 -38 9 -2 12 3 17 17 17 12 0 21 5 21 10 0 6 5
10 10 10 6 0 10 -7 10 -15z m0 -189 c0 -3 -4 -8 -10 -11 -5 -3 -10 -1 -10 4 0
6 5 11 10 11 6 0 10 -2 10 -4z m-700 -67 c0 -5 -4 -9 -10 -9 -5 0 -10 7 -10
16 0 8 5 12 10 9 6 -3 10 -10 10 -16z m663 4 c9 -3 17 -10 17 -15 0 -6 -7 -7
-16 -4 -9 3 -27 9 -40 12 -13 3 -21 10 -18 16 3 5 13 6 23 3 9 -4 24 -10 34
-12z m17 -53 c0 -5 -2 -10 -4 -10 -3 0 -8 5 -11 10 -3 6 -1 10 4 10 6 0 11 -4
11 -10z m-33 -42 c-3 -8 -6 -5 -6 6 -1 11 2 17 5 13 3 -3 4 -12 1 -19z m-1607
-118 c0 -5 -5 -10 -11 -10 -5 0 -7 5 -4 10 3 6 8 10 11 10 2 0 4 -4 4 -10z
m179 -25 c18 11 36 -6 20 -19 -8 -6 -21 -20 -29 -30 -14 -18 -14 -19 8 -7 12
6 22 16 22 21 0 12 37 13 44 1 3 -5 -5 -12 -19 -15 -14 -4 -25 -11 -25 -17 0
-8 5 -7 15 1 13 11 20 11 40 0 21 -11 43 -47 36 -59 -2 -2 1 -7 6 -10 5 -3 14
-18 20 -33 10 -23 9 -33 -5 -58 -15 -28 -21 -31 -52 -26 -19 3 -45 6 -57 6
-12 0 -37 14 -55 30 -18 17 -39 28 -46 25 -8 -3 -20 -5 -29 -5 -10 0 -13 -6
-9 -16 4 -11 2 -15 -8 -11 -10 4 -16 -2 -18 -21 -3 -26 -6 -27 -63 -29 -32 -1
-67 3 -77 8 -22 12 -24 39 -2 39 14 0 15 2 3 17 -8 9 -14 30 -14 47 0 25 4 31
21 32 17 1 20 -3 16 -18 -3 -15 -1 -19 9 -16 8 3 17 18 20 34 4 16 7 21 8 12
1 -21 12 -23 29 -6 6 6 15 8 19 3 5 -4 3 -10 -3 -12 -6 -2 -20 -10 -30 -18
-18 -14 -18 -14 3 -15 28 0 46 31 37 65 -7 28 10 35 21 8 5 -15 9 -12 23 17 9
19 26 45 36 57 l20 22 17 -25 c9 -14 19 -21 23 -16 3 5 -1 15 -9 22 -8 7 -15
19 -15 28 0 13 3 12 19 -2 11 -10 25 -15 30 -11z m-219 -35 c0 -5 -5 -10 -11
-10 -5 0 -7 5 -4 10 3 6 8 10 11 10 2 0 4 -4 4 -10z m87 -22 c-3 -8 -6 -5 -6
6 -1 11 2 17 5 13 3 -3 4 -12 1 -19z m-57 -7 c0 -13 -26 -32 -33 -24 -11 10
-8 25 3 18 6 -3 10 -1 10 4 0 6 5 11 10 11 6 0 10 -4 10 -9z m-60 -25 c0 -9
-10 -13 -25 -12 -31 1 -33 13 -2 19 12 2 23 5 25 6 1 0 2 -5 2 -13z m-50 -66
c0 -5 -50 -5 -67 -1 -5 1 2 6 15 12 18 7 22 14 17 31 -5 19 -2 17 14 -7 12
-16 21 -32 21 -35z m1090 -9 c0 -6 -4 -13 -10 -16 -16 -10 -11 -35 8 -36 14 0
14 -2 -3 -8 -11 -5 -26 -6 -34 -3 -9 4 -12 -1 -7 -14 3 -10 1 -26 -5 -34 -8
-12 -9 -10 -4 7 5 19 3 22 -12 17 -15 -5 -16 -4 -3 5 13 10 13 12 0 21 -13 10
-13 11 0 9 31 -3 39 2 45 31 6 27 25 43 25 21z m-1170 -21 c0 -5 -5 -10 -11
-10 -5 0 -7 5 -4 10 3 6 8 10 11 10 2 0 4 -4 4 -10z m70 0 c0 -5 -4 -10 -10
-10 -5 0 -10 5 -10 10 0 6 5 10 10 10 6 0 10 -4 10 -10z m1485 -10 c-27 -12
-35 -12 -35 0 0 6 12 10 28 9 24 0 25 -1 7 -9z m-1491 -28 c-8 -7 -14 -19 -14
-27 0 -14 -24 -27 -33 -18 -3 3 -1 13 6 24 6 10 7 22 3 26 -5 4 -11 3 -13 -4
-2 -7 -12 -9 -20 -6 -14 6 -14 7 3 13 10 4 33 7 50 7 27 -1 29 -3 18 -15z
m1006 14 c0 -2 -6 -9 -13 -15 -10 -8 -14 -7 -14 4 0 8 6 15 14 15 7 0 13 -2
13 -4z m-1075 -36 c3 -5 1 -10 -4 -10 -6 0 -11 5 -11 10 0 6 2 10 4 10 3 0 8
-4 11 -10z m1224 -49 c10 -10 25 -21 32 -23 8 -3 11 -9 6 -13 -4 -5 -21 1 -37
13 -20 16 -28 18 -24 7 4 -8 1 -15 -5 -15 -6 0 -11 11 -11 25 0 30 13 32 39 6z
m-72 -23 c-3 -8 -6 -5 -6 6 -1 11 2 17 5 13 3 -3 4 -12 1 -19z m910 -34 c-9
-9 -28 6 -21 18 4 6 10 6 17 -1 6 -6 8 -13 4 -17z m30 -114 c3 -39 -11 -30
-21 13 -5 21 -3 28 6 25 7 -3 14 -20 15 -38z m-2370 -102 c32 -12 63 -26 68
-31 14 -13 -53 2 -87 19 -15 8 -41 14 -58 14 -16 0 -30 5 -30 10 0 16 44 11
107 -12z m2343 -38 c25 -13 50 -23 55 -21 6 1 7 0 3 -4 -3 -4 9 -27 28 -52 36
-47 43 -83 20 -102 -35 -29 -217 54 -264 120 -11 16 -12 26 -2 50 7 16 19 33
27 38 21 11 80 -2 133 -29z m-2417 -231 c6 -16 16 -29 22 -29 18 0 33 -175 18
-197 -7 -9 -13 -24 -13 -33 0 -9 -9 -34 -20 -55 -12 -22 -37 -77 -57 -122 -19
-46 -39 -81 -43 -78 -5 3 -10 -1 -13 -7 -2 -7 -4 1 -3 19 1 17 5 31 11 30 5
-1 10 8 11 20 1 13 7 31 15 40 13 16 12 17 -3 5 -24 -19 -62 -11 -66 13 -2 15
3 21 20 22 12 1 28 9 34 18 7 9 19 13 30 9 18 -5 18 -5 0 10 -11 9 -26 16 -33
16 -21 0 -15 37 7 43 11 3 20 11 20 19 0 8 -3 9 -8 3 -4 -6 -16 -11 -27 -10
-21 0 -23 20 -9 104 l5 34 29 -32 c32 -34 45 -38 53 -17 4 9 14 12 26 9 22 -6
29 12 9 20 -7 3 -4 6 7 6 14 1 16 4 7 13 -6 6 -26 10 -44 10 -44 -2 -78 16
-78 43 0 11 -5 26 -10 31 -6 6 -8 24 -4 41 5 28 9 30 51 31 41 0 46 -2 56 -29z
m1941 -3 c17 -23 26 -51 31 -102 4 -38 12 -72 17 -75 6 -4 1 -23 -11 -45 -12
-21 -21 -43 -21 -49 0 -10 -56 -132 -99 -218 -11 -20 -15 -35 -10 -32 5 4 9 1
9 -4 0 -6 -3 -11 -8 -11 -4 0 -12 -10 -17 -22 -6 -13 -16 -22 -22 -21 -6 1 -9
-7 -6 -20 4 -22 4 -22 -12 -2 -24 30 -57 96 -51 103 3 3 17 -5 31 -18 l25 -23
0 32 c0 19 6 34 15 37 8 4 15 11 15 16 0 6 8 17 18 24 15 13 15 13 -8 10 -30
-4 -50 10 -50 35 0 14 7 19 25 19 31 0 33 17 3 24 -13 2 -1 4 25 3 40 -2 45 0
30 10 -9 7 -26 13 -38 13 -12 0 -25 3 -28 7 -12 11 14 33 39 33 12 0 25 4 28
8 3 5 -8 6 -25 4 -29 -4 -29 -4 -29 44 0 27 4 64 9 82 6 18 6 30 1 27 -15 -10
-40 7 -40 27 0 14 -5 18 -16 14 -9 -3 -12 -2 -9 5 4 6 13 8 19 6 8 -3 18 12
26 43 l13 49 48 -1 c42 0 51 -4 73 -32z m798 7 c26 -23 48 -100 53 -183 3 -41
8 -124 12 -185 4 -60 6 -146 5 -190 -1 -44 2 -131 8 -193 13 -139 3 -388 -17
-407 -7 -8 -13 -20 -13 -27 0 -10 -3 -9 -10 2 -8 12 -10 11 -10 -7 0 -13 -5
-23 -11 -23 -11 0 -9 16 7 54 5 14 4 17 -4 12 -16 -9 -52 -80 -52 -101 0 -17
-16 -20 -25 -5 -3 5 -12 7 -19 4 -11 -4 -11 5 -4 48 6 29 9 63 9 76 0 12 4 22
9 22 6 0 10 8 10 18 0 14 -2 14 -9 3 -7 -11 -11 -4 -15 25 -4 21 -12 64 -18
94 -17 87 -13 165 11 202 18 30 21 31 21 11 0 -13 5 -22 12 -20 19 4 31 -72
32 -214 1 -141 7 -153 35 -68 19 60 12 263 -8 230 -8 -12 -13 36 -13 119 0 30
-4 96 -9 145 -8 71 -7 105 6 163 28 134 12 246 -51 361 l-35 63 38 -7 c21 -4
46 -14 55 -22z m-1862 -15 c0 -10 2 -10 9 0 6 10 10 10 20 -2 10 -12 9 -15 -6
-19 -17 -4 -16 -5 2 -12 11 -5 30 -19 43 -32 30 -30 42 -29 42 2 0 28 24 34
34 9 9 -23 7 -36 -3 -29 -5 3 -13 0 -17 -6 -4 -8 -3 -9 4 -5 7 4 12 4 12 -1 0
-4 4 -24 9 -44 l8 -36 -66 18 c-36 10 -79 19 -96 20 -24 1 -25 3 -7 6 12 2 22
9 22 16 0 8 3 8 11 0 6 -6 18 -9 26 -6 11 4 10 8 -4 20 -10 8 -13 12 -6 9 6
-4 14 -3 17 2 6 9 -29 42 -44 42 -6 0 -10 7 -10 15 0 8 -7 15 -15 15 -9 0 -12
6 -9 15 7 18 24 20 24 3z m-1503 -51 c39 -52 56 -94 49 -123 -10 -38 -34 -37
-56 4 -12 20 -29 51 -39 67 -11 17 -22 45 -26 63 -6 29 -4 32 17 32 15 -1 34
-15 55 -43z m-174 -15 l16 -34 -22 20 c-12 11 -31 22 -41 24 -33 6 -31 29 2
26 23 -2 33 -10 45 -36z m1667 17 c0 -6 -4 -7 -10 -4 -5 3 -10 11 -10 16 0 6
5 7 10 4 6 -3 10 -11 10 -16z m-970 -29 c0 -13 -5 -18 -15 -14 -16 7 -19 17
-8 27 12 13 23 7 23 -13z m1000 1 c0 -5 -7 -11 -14 -14 -10 -4 -13 -1 -9 9 6
15 23 19 23 5z m-1782 -70 c32 -67 37 -99 23 -135 -7 -19 -8 -19 -14 3 -4 15
-10 20 -18 15 -8 -4 -10 -3 -5 4 9 14 -12 89 -34 122 -30 45 -32 60 -7 60 17
-1 29 -15 55 -69z m2883 16 c-10 -9 -11 -8 -5 6 3 10 9 15 12 12 3 -3 0 -11
-7 -18z m-1928 -2 c-3 -9 -8 -14 -10 -11 -3 3 -2 9 2 15 9 16 15 13 8 -4z
m1712 -15 c3 -5 1 -10 -4 -10 -6 0 -11 -10 -11 -22 l0 -22 -16 22 c-8 12 -12
27 -9 32 8 13 32 13 40 0z m-1040 -49 c-75 -36 -103 -42 -90 -20 15 23 100 54
155 58 8 0 -21 -17 -65 -38z m256 18 c34 -12 62 -29 56 -35 -2 -2 -30 8 -63
21 -60 25 -55 35 7 14z m-1671 -129 c17 -99 -15 -157 -54 -97 -26 40 -28 70
-7 117 11 25 21 59 22 75 l1 30 13 -30 c8 -16 19 -59 25 -95z m1172 103 c2
-10 1 -29 -3 -43 -5 -19 -7 -20 -8 -6 -1 10 -9 25 -18 32 -16 12 -16 15 -3 24
21 14 27 12 32 -7z m-124 -14 c-2 -6 -8 -10 -13 -10 -5 0 -11 4 -13 10 -2 6 4
11 13 11 9 0 15 -5 13 -11z m-861 -5 c-3 -3 -12 -4 -19 -1 -8 3 -5 6 6 6 11 1
17 -2 13 -5z m33 -31 c0 -32 -5 -28 -14 10 -4 19 -3 26 4 22 5 -3 10 -18 10
-32z m917 1 c8 -22 -15 -44 -26 -25 -10 16 -4 41 10 41 5 0 12 -7 16 -16z
m183 -4 c0 -12 -46 -24 -65 -16 -28 10 -15 22 25 23 22 1 40 -2 40 -7z m363
-29 c49 -22 61 -33 77 -70 11 -24 17 -48 13 -55 -3 -6 -3 -8 2 -4 9 8 28 -10
38 -36 5 -12 3 -23 -5 -28 -9 -6 -7 -8 7 -6 14 2 19 -2 17 -14 -2 -10 2 -18 8
-18 8 0 9 -11 5 -30 -6 -29 8 -43 18 -17 3 7 6 5 6 -5 1 -12 -6 -18 -19 -18
-11 0 -20 5 -20 11 0 8 -5 7 -16 -2 -13 -10 -17 -10 -24 1 -7 11 -13 9 -29
-11 l-21 -24 -6 23 c-10 34 -24 26 -17 -10 8 -45 19 -56 48 -50 32 6 56 -15
75 -63 11 -27 19 -35 32 -32 23 6 23 -9 1 -22 -17 -9 -17 -10 0 -28 21 -24 23
-83 3 -83 -9 0 -14 -13 -14 -42 0 -24 -1 -48 -1 -54 -1 -6 -12 -24 -26 -40
-14 -16 -25 -39 -25 -51 0 -26 -27 -32 -36 -9 -3 9 -12 12 -21 9 -10 -4 -14
-2 -10 4 4 6 -3 8 -17 6 -13 -3 -32 2 -42 11 -11 9 -27 21 -37 28 -18 13 -46
101 -48 148 l0 25 -10 -24 -9 -24 -26 24 -26 24 29 5 c32 6 32 6 17 184 -4 62
-3 87 4 82 6 -3 14 -1 18 5 4 7 3 9 -3 6 -15 -9 -24 34 -11 50 6 7 7 13 3 13
-4 0 -3 6 3 13 7 8 7 18 2 27 -6 8 -10 39 -10 68 0 35 -4 52 -12 52 -8 0 -4 8
7 17 19 15 19 15 -7 9 -22 -5 -26 -3 -22 9 4 8 -1 17 -10 21 -9 3 -16 11 -16
16 0 6 7 8 15 4 8 -3 15 -1 15 5 0 15 67 1 133 -30z m-1123 -11 c0 -5 -2 -10
-4 -10 -3 0 -8 5 -11 10 -3 6 -1 10 4 10 6 0 11 -4 11 -10z m625 0 c3 -5 1
-10 -4 -10 -6 0 -11 5 -11 10 0 6 2 10 4 10 3 0 8 -4 11 -10z m2151 -150 c8
-8 6 -27 -6 -63 -10 -29 -13 -53 -9 -55 5 -2 9 -11 9 -20 0 -14 -2 -15 -10 -2
-5 8 -11 12 -13 10 -3 -3 -21 -24 -41 -48 -34 -41 -35 -45 -20 -67 14 -22 14
-24 -16 -36 -16 -8 -30 -18 -30 -22 0 -5 -10 -5 -22 -1 -20 6 -21 5 -9 -10 12
-14 11 -16 -10 -16 -19 0 -21 -2 -9 -10 13 -8 12 -10 -2 -10 -10 0 -18 -4 -18
-8 0 -16 -37 -52 -53 -52 -10 0 -14 -6 -11 -15 4 -8 1 -15 -5 -15 -6 0 -11 -8
-11 -17 0 -9 -3 -13 -7 -10 -3 4 -13 1 -21 -6 -12 -9 -16 -9 -19 1 -6 17 -43
15 -43 -3 0 -8 -3 -14 -7 -13 -13 2 -67 -14 -80 -25 -9 -6 -18 -6 -27 2 -17
14 -67 17 -87 6 -17 -11 -59 -13 -65 -3 -3 4 12 8 32 8 28 0 35 3 27 11 -6 6
-9 18 -6 25 3 9 -2 14 -17 14 -19 0 -20 -2 -10 -15 10 -12 10 -15 -1 -16 -31
-3 -65 4 -89 16 l-25 13 35 6 c19 3 64 7 100 10 36 2 76 9 90 15 23 10 22 11
-12 8 -31 -2 -38 0 -38 15 0 12 5 15 17 11 11 -4 14 -3 9 5 -5 8 -2 10 8 6 11
-4 16 0 16 10 0 9 5 16 11 16 8 0 7 5 -1 15 -10 12 -15 13 -20 4 -5 -7 -10 -8
-14 -1 -3 6 6 20 21 31 16 11 33 25 40 31 7 5 17 10 23 10 6 0 9 4 6 8 -5 9
51 66 94 96 l25 18 -34 -7 c-31 -7 -33 -5 -29 13 4 15 2 19 -8 15 -8 -3 -20 0
-28 6 -7 6 -17 8 -22 4 -5 -4 -2 1 7 10 15 17 18 17 55 1 21 -9 46 -20 55 -25
10 -4 38 0 70 11 30 11 72 24 95 30 28 7 44 18 52 35 7 14 27 32 45 40 39 17
50 18 63 5z m-126 -44 c0 -8 -7 -16 -15 -20 -12 -4 -13 -2 -2 14 14 24 17 25
17 6z m-3416 -37 c27 -32 42 -71 33 -86 -3 -5 34 -9 83 -8 73 0 92 -3 102 -17
16 -21 60 -38 99 -38 18 0 28 -4 24 -10 -4 -6 -1 -17 5 -25 10 -12 9 -15 -6
-15 -11 -1 -2 -7 20 -15 51 -18 61 -30 28 -31 -16 0 -55 18 -100 48 -40 26
-75 48 -79 48 -7 0 136 -104 166 -119 12 -7 18 -17 15 -23 -4 -7 -2 -8 5 -4 6
4 23 1 36 -8 31 -20 52 -20 72 0 9 8 24 13 34 11 15 -4 16 -2 6 14 -9 15 -8
22 5 35 11 12 14 27 11 55 -5 34 -3 39 14 39 26 0 61 -39 73 -81 6 -19 10 -62
10 -97 l0 -63 -77 6 c-239 19 -429 100 -571 243 -81 81 -84 85 -77 120 4 20 9
40 11 44 10 16 33 7 58 -23z m361 17 c18 -13 17 -15 -21 -50 -21 -20 -46 -36
-54 -36 -8 0 -26 -6 -40 -13 -19 -10 -37 -10 -74 -2 l-49 11 27 17 c14 10 36
22 49 28 12 5 32 16 45 23 16 9 35 11 58 6 19 -5 32 -4 28 1 -3 5 -15 9 -27 9
-18 0 -19 2 -7 10 21 14 43 12 65 -4z m133 -6 c1 -9 -21 -42 -50 -74 -49 -53
-54 -56 -65 -38 -10 17 -9 18 15 15 l27 -4 -29 24 c-20 18 -25 27 -16 32 9 6
11 4 5 -5 -5 -8 -3 -11 6 -8 8 3 14 10 14 16 0 5 3 14 8 18 4 4 7 2 7 -6 0 -9
3 -10 13 -1 10 8 17 7 26 -2 9 -9 11 -6 8 13 -3 15 -11 26 -23 27 -18 3 -17 2
1 -6 16 -7 14 -9 -14 -8 -31 0 -33 1 -15 14 24 18 78 13 82 -7z m212 5 c5 3
12 0 16 -6 4 -8 3 -9 -4 -5 -16 10 -15 -2 2 -19 7 -8 17 -11 21 -7 5 4 5 2 1
-5 -3 -6 -2 -14 4 -18 5 -3 10 -1 10 6 0 7 3 10 6 7 3 -4 0 -16 -6 -28 -12
-22 -13 -21 -41 26 -16 27 -28 54 -28 59 0 6 3 4 6 -3 2 -6 9 -10 13 -7z
m2354 -20 c6 -11 15 -23 20 -26 5 -4 6 -11 2 -17 -3 -5 10 -17 29 -26 19 -9
35 -20 35 -25 0 -4 -15 -21 -33 -39 -24 -23 -36 -29 -44 -21 -8 8 -11 6 -10
-7 2 -21 -38 -33 -55 -16 -6 6 0 8 16 5 21 -4 24 -2 19 15 -6 26 -61 38 -81
18 -22 -21 -8 -44 32 -51 34 -7 35 -8 19 -31 -8 -13 -19 -22 -23 -19 -5 3 -11
-4 -15 -15 -3 -11 -14 -21 -23 -21 -15 -1 -15 -2 1 -6 9 -2 17 -13 17 -24 0
-24 -44 -43 -68 -29 -9 5 -12 10 -5 10 7 0 10 7 6 16 -3 8 -12 13 -19 10 -8
-3 -14 1 -14 9 0 9 -6 12 -15 9 -11 -5 -15 1 -15 20 0 18 -4 24 -15 20 -8 -4
-15 -1 -15 5 0 6 -7 11 -16 11 -11 0 -14 6 -9 21 5 13 2 25 -6 29 -9 6 -4 16
19 38 20 18 27 32 20 34 -20 7 11 67 38 74 33 9 47 -4 40 -37 -4 -21 -2 -29 9
-29 20 0 30 21 14 31 -12 7 -11 9 1 9 12 0 13 2 1 9 -18 12 -5 51 18 51 24 0
52 -31 34 -37 -8 -3 -2 -14 15 -29 23 -20 25 -25 12 -34 -16 -11 -1 -14 23 -4
13 5 13 8 -4 25 -25 25 -24 40 1 46 l21 6 -21 14 c-11 8 -18 19 -14 24 10 16
46 6 58 -16z m-3146 -10 c-3 -3 -9 2 -12 12 -6 14 -5 15 5 6 7 -7 10 -15 7
-18z m3412 15 c-20 -13 -33 -13 -25 0 3 6 14 10 23 10 15 0 15 -2 2 -10z
m-2774 -24 c9 -23 -45 -115 -68 -116 -13 0 6 45 25 59 13 9 18 22 15 42 -5 30
18 42 28 15z m724 -46 c0 -54 -105 -146 -250 -220 -72 -37 -53 -16 33 34 95
57 119 75 111 87 -3 5 15 33 40 61 25 29 46 56 46 60 0 5 5 8 10 8 6 0 10 -13
10 -30z m760 -10 c0 -5 -7 -10 -15 -10 -8 0 -15 5 -15 10 0 6 7 10 15 10 8 0
15 -4 15 -10z m30 -10 c0 -5 -2 -10 -4 -10 -3 0 -8 5 -11 10 -3 6 -1 10 4 10
6 0 11 -4 11 -10z m-1440 -22 c0 -13 3 -34 6 -48 l6 -25 -20 23 c-11 12 -24
22 -29 22 -6 0 -10 7 -10 15 0 8 6 15 14 15 7 0 13 5 13 10 0 6 5 10 10 10 6
0 10 -10 10 -22z m1370 12 c0 -5 -7 -10 -15 -10 -8 0 -15 5 -15 10 0 6 7 10
15 10 8 0 15 -4 15 -10z m-1630 -10 c0 -12 -17 -12 -45 0 -17 7 -15 9 13 9 17
1 32 -3 32 -9z m21 -73 c-10 -9 -11 -8 -5 6 3 10 9 15 12 12 3 -3 0 -11 -7
-18z m1736 -79 c-3 -7 -5 -2 -5 12 0 14 2 19 5 13 2 -7 2 -19 0 -25z m903 -12
c-7 -7 -13 -7 -20 0 -6 6 -3 10 10 10 13 0 16 -4 10 -10z m-1260 -10 c0 -3 -4
-8 -10 -11 -5 -3 -10 -1 -10 4 0 6 5 11 10 11 6 0 10 -2 10 -4z m363 -110 c-7
-12 -10 -12 -23 2 -13 14 -12 15 3 9 12 -4 17 -1 18 11 0 10 3 12 5 5 3 -7 2
-19 -3 -27z m754 -22 c-3 -3 -12 -4 -19 -1 -8 3 -5 6 6 6 11 1 17 -2 13 -5z
m127 -29 c-4 -8 -8 -15 -10 -15 -2 0 -4 7 -4 15 0 8 4 15 10 15 5 0 7 -7 4
-15z m-239 -15 c3 -5 1 -10 -4 -10 -6 0 -11 -5 -11 -11 0 -6 9 -9 20 -6 13 3
18 1 13 -6 -4 -6 2 -8 17 -4 13 3 28 0 37 -9 11 -11 12 -14 1 -14 -10 0 -9 -3
2 -10 8 -5 22 -7 30 -5 8 2 22 0 30 -5 13 -8 12 -11 -5 -24 -11 -9 -29 -13
-40 -9 -11 3 -37 5 -57 5 -21 -1 -38 3 -38 9 0 5 -8 9 -17 7 -24 -4 -29 29 -6
35 15 4 14 5 -4 6 -12 0 -23 6 -25 13 -2 6 -18 11 -36 10 -17 0 -34 4 -37 9
-4 5 7 9 24 9 16 0 33 5 36 10 3 6 19 10 35 10 16 0 32 -4 35 -10z m-580 -70
c-3 -4 15 -34 40 -66 45 -58 58 -104 30 -104 -8 0 -15 -4 -15 -10 0 -19 -19
-10 -53 25 -22 22 -40 33 -50 29 -12 -4 -15 1 -12 29 2 20 9 46 17 59 13 22
14 29 17 57 1 11 4 11 16 1 8 -7 13 -16 10 -20z m608 -67 c-7 -2 -19 -2 -25 0
-7 3 -2 5 12 5 14 0 19 -2 13 -5z m42 -3 c3 -6 -1 -7 -9 -4 -18 7 -21 14 -7
14 6 0 13 -4 16 -10z m-457 -315 c11 -14 25 -25 30 -25 6 0 14 -9 17 -20 4
-11 11 -18 16 -15 5 4 9 -1 9 -10 0 -11 5 -15 14 -12 10 4 14 0 11 -14 -4 -22
30 -47 38 -26 3 6 4 -1 4 -17 -1 -18 4 -30 13 -33 13 -4 13 -3 0 6 -17 12 -10
14 14 5 12 -5 13 -10 5 -26 -12 -23 5 -50 27 -41 8 3 14 0 14 -6 0 -6 -5 -11
-11 -11 -12 0 -1 -43 12 -48 5 -2 9 -10 9 -18 0 -7 11 -21 24 -30 14 -8 26
-25 28 -37 2 -15 14 -25 36 -32 17 -5 32 -15 32 -22 0 -7 7 -13 15 -13 8 0 15
-6 15 -14 0 -8 5 -16 11 -18 7 -2 9 -13 4 -27 -5 -17 -13 -21 -33 -19 -19 2
-27 9 -26 21 1 9 -5 17 -13 17 -8 0 -12 -4 -8 -9 3 -5 1 -12 -5 -16 -5 -3 -10
1 -10 9 0 9 -6 16 -12 17 -10 0 -10 2 0 6 6 2 12 11 12 18 0 7 6 15 13 18 6 2
9 7 5 11 -3 4 -20 0 -37 -8 -40 -21 -58 -21 -41 -1 10 12 10 15 -3 15 -8 0
-20 -7 -27 -15 -12 -14 -15 -14 -31 1 -10 9 -23 13 -28 9 -6 -3 -11 -1 -11 4
0 6 -16 11 -35 11 -28 0 -38 5 -45 23 -6 16 -9 17 -9 5 -1 -10 -11 -18 -28
-21 -25 -4 -24 -4 7 -6 33 -2 34 -3 11 -12 -13 -5 -32 -7 -42 -4 -11 4 -19 2
-19 -4 0 -6 7 -11 16 -11 14 0 14 -3 4 -15 -7 -8 -18 -15 -25 -15 -7 0 -20
-11 -29 -25 -9 -14 -12 -25 -6 -25 5 0 10 -13 10 -29 0 -23 -4 -29 -19 -28
-11 0 -17 5 -15 9 3 5 10 5 16 2 7 -4 8 -2 4 4 -4 7 -14 12 -21 12 -9 0 -12 6
-8 17 5 12 2 15 -10 10 -10 -4 -28 3 -45 18 -16 14 -33 21 -37 17 -5 -4 -5 -1
-1 6 4 7 0 15 -11 19 -24 8 -64 39 -58 45 2 2 -6 10 -18 17 -20 13 -21 13 -8
-2 19 -24 9 -21 -51 15 -29 17 -62 31 -72 30 -11 0 -27 3 -37 9 -13 6 -33 3
-71 -11 -36 -13 -54 -16 -57 -9 -2 8 -6 7 -12 -2 -13 -21 -140 -17 -174 5 -21
14 -24 20 -14 26 16 10 109 1 126 -13 28 -21 108 10 170 67 26 24 32 61 8 52
-8 -3 -15 -2 -15 2 1 11 107 62 129 62 10 0 22 7 25 16 5 12 16 15 40 12 19
-2 32 0 29 4 -2 5 8 6 23 2 19 -5 25 -4 20 5 -4 6 -3 11 2 11 18 0 21 -29 4
-33 -9 -3 -2 -5 16 -6 36 -1 43 17 16 43 -18 18 -9 40 13 32 10 -4 13 -2 10 8
-4 10 -1 13 9 9 9 -3 14 0 12 7 -2 7 4 15 12 17 13 4 13 3 0 -6 -9 -7 -10 -11
-3 -11 6 0 14 4 17 8 8 13 -11 35 -23 28 -6 -4 -11 -5 -11 -2 0 3 20 17 45 32
25 14 45 30 45 35 0 15 36 -8 58 -36z m-258 -125 c-14 -4 -36 -8 -50 -8 -22 0
-22 1 5 8 17 4 39 8 50 8 16 0 15 -2 -5 -8z m464 -69 c-10 -11 -22 -17 -27
-14 -5 3 1 14 14 24 30 22 36 17 13 -10z m-224 -350 c0 -15 -5 -32 -10 -37 -7
-7 -6 -20 5 -40 20 -40 18 -54 -4 -27 -10 12 -21 20 -24 16 -3 -3 -4 8 -3 23
2 16 4 46 5 66 1 29 4 36 16 32 8 -4 15 -18 15 -33z m1037 -83 c-3 -8 -6 -5
-6 6 -1 11 2 17 5 13 3 -3 4 -12 1 -19z m-10 -60 c-3 -8 -6 -5 -6 6 -1 11 2
17 5 13 3 -3 4 -12 1 -19z m-1350 -193 c18 1 20 -1 12 -12 -9 -10 -7 -13 7
-13 18 -1 18 -1 1 -11 -22 -13 -109 -8 -114 7 -2 7 10 17 27 22 16 6 30 17 31
24 0 8 3 7 7 -3 4 -9 17 -15 29 -14z m-152 -17 c-9 -6 -19 -7 -22 -4 -4 3 -1
6 6 6 7 0 9 4 6 10 -4 6 1 7 11 3 15 -6 15 -7 -1 -15z m308 -3 c-3 -8 -15 -15
-27 -15 -21 1 -21 1 2 13 12 7 19 17 15 22 -4 4 -3 5 4 1 7 -4 10 -13 6 -21z
m39 -7 c-7 -7 -12 -8 -12 -2 0 14 12 26 19 19 2 -3 -1 -11 -7 -17z m58 -4 c0
-2 -7 -4 -15 -4 -8 0 -15 4 -15 10 0 5 7 7 15 4 8 -4 15 -8 15 -10z m1165 -64
c-3 -5 -1 -10 6 -10 7 0 10 -2 7 -5 -3 -3 -13 -2 -22 1 -14 5 -15 9 -4 15 17
11 20 11 13 -1z m95 -36 c0 -2 -9 0 -19 6 -25 13 -34 13 -26 0 4 -6 -1 -7 -11
-3 -12 4 -14 8 -5 11 8 3 7 8 -6 18 -10 8 1 6 25 -6 23 -11 42 -23 42 -26z
m427 -1789 c0 -8 -4 -12 -9 -9 -5 3 -6 10 -3 15 9 13 12 11 12 -6z m-17 -39
c0 -2 -7 -7 -16 -10 -8 -3 -12 -2 -9 4 6 10 25 14 25 6z m-48 -80 c-10 -20
-22 -33 -27 -29 -4 4 -5 0 -2 -9 7 -20 -4 -30 -21 -19 -9 6 -5 15 14 34 15 15
23 27 19 27 -5 0 0 9 10 20 26 28 28 20 7 -24z"/>
<path d="M2823 7253 c9 -2 25 -2 35 0 9 3 1 5 -18 5 -19 0 -27 -2 -17 -5z"/>
<path d="M2935 7030 c3 -5 13 -10 21 -10 8 0 12 5 9 10 -3 6 -13 10 -21 10 -8
0 -12 -4 -9 -10z"/>
<path d="M2870 7020 c8 -5 26 -10 40 -10 20 0 22 2 10 10 -8 5 -26 10 -40 10
-20 0 -22 -2 -10 -10z"/>
<path d="M2960 7000 c0 -6 -10 -8 -24 -4 -13 3 -27 1 -30 -5 -5 -7 7 -11 33
-11 39 0 53 11 31 25 -5 3 -10 1 -10 -5z"/>
<path d="M2979 6960 c-19 -15 -21 -19 -7 -20 9 0 18 6 21 13 3 8 10 7 26 -7
16 -15 21 -16 21 -5 0 16 -19 39 -31 39 -4 0 -17 -9 -30 -20z"/>
<path d="M4305 6680 c-3 -5 -1 -10 4 -10 6 0 11 5 11 10 0 6 -2 10 -4 10 -3 0
-8 -4 -11 -10z"/>
<path d="M4340 6530 c0 -5 7 -10 15 -10 8 0 15 5 15 10 0 6 -7 10 -15 10 -8 0
-15 -4 -15 -10z"/>
<path d="M4530 6360 c13 -24 35 -27 26 -4 -3 9 -6 18 -6 20 0 2 -7 4 -15 4
-13 0 -14 -4 -5 -20z"/>
<path d="M4655 6291 c-8 -14 15 -25 27 -13 6 6 17 8 24 5 8 -3 14 0 14 6 0 13
-56 15 -65 2z"/>
<path d="M3680 6230 c0 -5 7 -10 16 -10 8 0 12 5 9 10 -3 6 -10 10 -16 10 -5
0 -9 -4 -9 -10z"/>
<path d="M3618 6223 c6 -2 18 -2 25 0 6 3 1 5 -13 5 -14 0 -19 -2 -12 -5z"/>
<path d="M3768 6213 c7 -3 16 -2 19 1 4 3 -2 6 -13 5 -11 0 -14 -3 -6 -6z"/>
<path d="M4588 6213 c6 -2 18 -2 25 0 6 3 1 5 -13 5 -14 0 -19 -2 -12 -5z"/>
<path d="M3850 6159 c0 -5 5 -7 10 -4 6 3 10 8 10 11 0 2 -4 4 -10 4 -5 0 -10
-5 -10 -11z"/>
<path d="M4588 6163 c7 -3 16 -2 19 1 4 3 -2 6 -13 5 -11 0 -14 -3 -6 -6z"/>
<path d="M4654 6118 c3 -13 6 -27 6 -33 0 -5 5 -3 10 5 15 23 12 50 -6 50 -12
0 -15 -6 -10 -22z"/>
<path d="M3860 6110 c-12 -8 -11 -10 8 -10 12 0 22 5 22 10 0 13 -11 13 -30 0z"/>
<path d="M4850 6089 c0 -5 5 -7 10 -4 6 3 10 8 10 11 0 2 -4 4 -10 4 -5 0 -10
-5 -10 -11z"/>
<path d="M3840 6080 c0 -5 5 -10 11 -10 5 0 7 5 4 10 -3 6 -8 10 -11 10 -2 0
-4 -4 -4 -10z"/>
<path d="M3931 6024 c0 -11 3 -14 6 -6 3 7 2 16 -1 19 -3 4 -6 -2 -5 -13z"/>
<path d="M4716 5993 c-6 -14 -5 -15 5 -6 7 7 10 15 7 18 -3 3 -9 -2 -12 -12z"/>
<path d="M3992 5940 c0 -14 2 -19 5 -12 2 6 2 18 0 25 -3 6 -5 1 -5 -13z"/>
<path d="M4688 5924 c-8 -15 3 -104 13 -104 11 0 11 67 0 94 -4 11 -10 15 -13
10z"/>
<path d="M3913 5909 c3 -9 1 -21 -3 -25 -5 -5 -5 -15 -1 -23 6 -9 10 -5 15 14
4 17 2 32 -5 39 -9 8 -11 7 -6 -5z"/>
<path d="M4646 5778 c3 -4 19 -8 35 -8 18 0 28 4 24 10 -4 6 -19 9 -35 8 -16
-1 -26 -6 -24 -10z"/>
<path d="M4230 5619 c0 -5 5 -7 10 -4 6 3 10 8 10 11 0 2 -4 4 -10 4 -5 0 -10
-5 -10 -11z"/>
<path d="M4190 5585 c-10 -12 -10 -15 3 -15 19 0 31 16 18 24 -5 3 -14 -1 -21
-9z"/>
<path d="M4202 5539 c-14 -22 -7 -25 14 -5 8 8 11 17 6 20 -4 2 -13 -4 -20
-15z"/>
<path d="M3850 5389 c0 -18 2 -19 15 -9 15 12 12 30 -6 30 -5 0 -9 -10 -9 -21z"/>
<path d="M4880 5279 c0 -5 -4 -7 -10 -4 -5 3 -10 2 -10 -3 0 -19 26 -20 27 -1
1 10 0 19 -3 19 -2 0 -4 -5 -4 -11z"/>
<path d="M4435 5240 c-3 -5 -1 -10 4 -10 6 0 11 5 11 10 0 6 -2 10 -4 10 -3 0
-8 -4 -11 -10z"/>
<path d="M4493 5243 c9 -2 23 -2 30 0 6 3 -1 5 -18 5 -16 0 -22 -2 -12 -5z"/>
<path d="M4880 5195 c0 -8 4 -15 10 -15 5 0 7 7 4 15 -4 8 -8 15 -10 15 -2 0
-4 -7 -4 -15z"/>
<path d="M4210 5180 c0 -6 7 -10 15 -10 8 0 15 2 15 4 0 2 -7 6 -15 10 -8 3
-15 1 -15 -4z"/>
<path d="M4585 6510 c-3 -5 -1 -10 4 -10 6 0 11 5 11 10 0 6 -2 10 -4 10 -3 0
-8 -4 -11 -10z"/>
<path d="M4450 4441 c0 -13 11 -34 26 -47 29 -28 36 -30 28 -10 -4 11 2 14 26
11 27 -4 30 -2 20 10 -9 11 -9 15 -1 15 6 0 11 5 11 10 0 6 -19 10 -43 10 -24
0 -48 5 -55 12 -9 9 -12 7 -12 -11z"/>
<path d="M3600 4110 c-8 -5 -12 -11 -9 -14 2 -3 11 -1 19 4 8 5 12 11 9 14 -2
3 -11 1 -19 -4z"/>
<path d="M3588 4044 c-3 -43 11 -105 26 -116 17 -11 19 -1 5 23 -7 13 -13 45
-15 72 -3 61 -12 72 -16 21z"/>
<path d="M3710 4020 c0 -5 5 -10 10 -10 6 0 10 5 10 10 0 6 -4 10 -10 10 -5 0
-10 -4 -10 -10z"/>
<path d="M3791 3724 c0 -11 3 -14 6 -6 3 7 2 16 -1 19 -3 4 -6 -2 -5 -13z"/>
<path d="M5147 3844 c3 -7 9 -14 14 -14 14 0 10 17 -5 23 -10 4 -13 1 -9 -9z"/>
<path d="M5099 3823 c-13 -16 -12 -17 4 -4 16 13 21 21 13 21 -2 0 -10 -8 -17
-17z"/>
<path d="M4780 3790 c-9 -6 -10 -10 -3 -10 6 0 15 5 18 10 8 12 4 12 -15 0z"/>
<path d="M5030 3780 c-9 -6 -10 -10 -3 -10 6 0 15 5 18 10 8 12 4 12 -15 0z"/>
<path d="M1960 3990 c20 -13 33 -13 25 0 -3 6 -14 10 -23 10 -15 0 -15 -2 -2
-10z"/>
<path d="M4520 3490 c0 -5 5 -10 11 -10 5 0 7 5 4 10 -3 6 -8 10 -11 10 -2 0
-4 -4 -4 -10z"/>
<path d="M4005 3097 c-12 -9 -14 -16 -7 -21 6 -3 16 3 22 14 13 24 10 25 -15
7z"/>
<path d="M3875 2920 c-3 -6 5 -10 19 -10 32 0 42 15 11 18 -13 1 -27 -3 -30
-8z"/>
<path d="M3757 2865 c3 -8 9 -12 14 -9 12 7 11 11 -5 17 -10 4 -13 1 -9 -8z"/>
<path d="M3698 2863 c7 -3 16 -2 19 1 4 3 -2 6 -13 5 -11 0 -14 -3 -6 -6z"/>
<path d="M3735 2850 c-3 -5 -1 -10 4 -10 6 0 11 5 11 10 0 6 -2 10 -4 10 -3 0
-8 -4 -11 -10z"/>
<path d="M3655 2800 c4 -6 11 -8 16 -5 14 9 11 15 -7 15 -8 0 -12 -5 -9 -10z"/>
<path d="M3920 2796 c0 -23 16 -27 17 -5 1 10 -2 19 -8 19 -5 0 -9 -6 -9 -14z"/>
<path d="M4296 2775 c4 -8 10 -15 15 -15 5 0 9 7 9 15 0 8 -7 15 -15 15 -9 0
-12 -6 -9 -15z"/>
<path d="M3960 2770 c0 -5 5 -10 11 -10 5 0 7 5 4 10 -3 6 -8 10 -11 10 -2 0
-4 -4 -4 -10z"/>
<path d="M4014 2744 c3 -9 6 -18 6 -20 0 -2 11 -4 25 -4 14 0 25 5 25 10 0 6
-9 10 -20 10 -11 0 -20 5 -20 10 0 6 -5 10 -11 10 -6 0 -8 -7 -5 -16z"/>
<path d="M4320 2735 c0 -8 7 -15 15 -15 8 0 15 4 15 9 0 5 -7 11 -15 15 -9 3
-15 0 -15 -9z"/>
<path d="M4050 2650 c0 -5 5 -10 10 -10 6 0 10 5 10 10 0 6 -4 10 -10 10 -5 0
-10 -4 -10 -10z"/>
<path d="M4425 2640 c-4 -6 3 -10 14 -10 25 0 27 6 6 13 -8 4 -17 2 -20 -3z"/>
</g>
</svg>
