<?xml version="1.0" standalone="no"?>
<!DOCTYPE svg PUBLIC "-//W3C//DTD SVG 20010904//EN"
 "http://www.w3.org/TR/2001/REC-SVG-20010904/DTD/svg10.dtd">
<svg version="1.0" xmlns="http://www.w3.org/2000/svg"
 width="460.000000pt" height="365.000000pt" viewBox="0 0 460.000000 365.000000"
 preserveAspectRatio="xMidYMid meet">
<metadata>
Created by potrace 1.16, written by Peter Selinger 2001-2019
</metadata>
<g transform="translate(0.000000,365.000000) scale(0.100000,-0.100000)"
fill="#000000" stroke="none">
<path d="M1746 3103 c-3 -21 -6 -57 -6 -80 0 -48 -7 -52 -85 -54 -53 -1 -82
-15 -128 -58 -16 -14 -49 -38 -75 -52 -27 -15 -46 -33 -46 -42 1 -9 -4 -13
-12 -10 -8 3 -11 10 -7 16 3 6 1 7 -6 3 -6 -4 -9 -11 -7 -15 3 -4 -5 -19 -17
-31 -53 -58 -120 -260 -131 -400 -3 -41 -11 -77 -16 -78 -6 -2 -7 -9 -4 -14 4
-6 3 -8 -3 -5 -5 3 -22 -5 -39 -18 -32 -27 -14 -36 22 -11 18 13 20 12 21 -5
1 -11 -5 -19 -13 -19 -8 0 -14 -5 -14 -11 0 -6 6 -9 14 -6 18 7 31 -22 16 -37
-13 -13 -13 -29 1 -20 8 5 8 1 0 -14 -14 -26 -14 -42 0 -22 8 12 9 9 4 -10 -3
-14 -7 -32 -8 -40 -1 -8 -6 -18 -10 -21 -4 -3 -9 -17 -9 -30 -1 -13 -6 -30
-11 -36 -6 -9 -5 -13 2 -13 7 0 9 -5 5 -11 -4 -8 -9 -7 -15 2 -6 11 -9 10 -14
-3 -4 -10 -3 -22 1 -29 5 -8 3 -9 -6 -4 -9 6 -10 2 -5 -15 5 -15 3 -20 -3 -16
-6 3 -13 2 -17 -3 -3 -6 -13 -7 -22 -4 -15 6 -16 5 -3 -9 11 -11 17 -12 22 -4
5 7 8 8 8 0 0 -12 -32 -44 -45 -44 -4 0 -2 7 5 15 10 11 9 18 -3 30 -20 20
-33 20 -17 0 7 -9 10 -19 6 -23 -4 -4 -14 1 -21 11 -12 17 -13 16 -11 -7 0
-13 4 -22 7 -20 4 2 12 -3 19 -12 10 -12 11 -17 1 -27 -10 -9 -11 -8 -5 7 6
16 4 18 -10 13 -10 -4 -20 -7 -22 -7 -2 0 -4 -12 -4 -28 0 -28 -34 -67 -50
-57 -5 3 -12 0 -15 -5 -4 -6 -17 -15 -28 -19 -15 -6 -28 -26 -39 -62 -20 -65
-21 -94 -1 -78 7 6 13 17 13 23 0 6 -5 4 -11 -4 -8 -12 -9 -9 -4 10 18 67 57
124 53 76 -1 -13 -6 -23 -10 -20 -8 5 -28 -28 -28 -48 0 -10 3 -9 11 2 9 12 9
11 4 -5 -4 -11 -10 -30 -12 -42 -3 -13 -10 -20 -15 -17 -6 4 -7 -2 -3 -16 5
-16 4 -20 -5 -15 -8 5 -11 -1 -8 -21 2 -19 -1 -28 -10 -26 -6 1 -12 -7 -12
-18 0 -10 -7 -23 -16 -28 -11 -6 -13 -11 -5 -16 6 -4 11 -2 11 3 0 6 5 11 10
11 14 0 12 -27 -2 -34 -10 -5 -10 -7 0 -12 6 -3 12 -11 12 -17 0 -5 -3 -7 -7
-4 -7 8 -33 -38 -33 -59 0 -8 10 -19 22 -24 13 -5 17 -9 11 -9 -16 -1 -17 -41
-2 -41 5 0 7 -5 4 -10 -4 -6 -11 -8 -16 -5 -5 4 -9 -5 -9 -19 0 -38 -20 -32
-21 7 -2 29 -2 29 -6 5 -2 -15 3 -41 13 -59 16 -32 16 -33 -6 -51 -12 -10 -18
-18 -13 -18 5 0 14 5 19 10 8 8 10 -1 10 -26 -2 -38 -25 -62 -27 -27 0 11 -3
13 -6 5 -3 -7 1 -19 7 -27 10 -12 10 -15 -1 -15 -12 0 -12 -2 0 -9 9 -6 10
-10 2 -12 -6 -2 -12 -21 -13 -42 -1 -21 -5 -40 -9 -43 -4 -2 -7 -23 -7 -45 0
-23 -5 -45 -11 -48 -7 -4 -9 -16 -5 -27 6 -18 6 -18 -9 1 -13 15 -16 16 -17 5
0 -12 -2 -12 -9 -2 -5 8 -7 -6 -6 -35 1 -35 -4 -53 -18 -67 -11 -11 -17 -26
-14 -38 4 -15 2 -18 -10 -14 -13 5 -14 4 -3 -9 7 -8 8 -15 2 -15 -5 0 -13 -7
-16 -16 -5 -12 -2 -15 9 -10 9 3 13 2 10 -4 -3 -6 -15 -10 -26 -10 -11 0 -17
-5 -14 -10 4 -6 12 -7 18 -4 7 4 1 -5 -12 -19 -14 -15 -27 -24 -30 -21 -3 3 3
12 13 20 21 15 22 14 -38 18 -32 1 -41 -11 -26 -34 9 -13 13 -11 30 10 24 31
25 22 3 -25 -11 -24 -19 -31 -25 -23 -5 10 -12 10 -25 2 -10 -6 -28 -10 -40
-9 -12 1 -20 -2 -18 -5 3 -4 -4 -18 -15 -30 -11 -12 -17 -27 -14 -31 3 -5 1
-9 -5 -9 -5 0 -11 -10 -13 -22 -2 -12 -14 -28 -28 -35 -14 -7 -23 -13 -20 -14
46 -7 58 -6 54 5 -3 7 0 23 6 37 9 22 10 22 5 -7 -4 -22 -1 -35 11 -45 16 -12
17 -12 11 3 -3 10 -1 20 5 24 7 4 8 3 4 -4 -4 -7 -2 -12 3 -12 6 0 11 -20 11
-45 0 -50 16 -60 26 -18 l7 27 9 -25 9 -24 16 28 c8 16 17 26 21 23 3 -4 0
-12 -6 -18 -21 -21 -14 -37 17 -35 18 1 27 6 24 15 -4 10 -9 10 -19 1 -8 -7
-18 -8 -22 -4 -4 4 -2 10 4 12 6 2 20 11 30 19 17 14 17 15 2 10 -10 -3 -18
-1 -18 4 0 6 5 10 11 10 5 0 8 4 5 8 -2 4 8 7 22 6 15 -1 35 -3 45 -3 9 -1 17
-8 17 -16 0 -8 5 -15 11 -15 6 0 8 -9 4 -21 -5 -15 -4 -19 4 -15 6 4 11 3 11
-2 0 -5 13 -9 28 -9 16 1 29 7 29 14 0 10 -3 10 -15 0 -13 -10 -14 -9 -3 11 7
13 10 30 7 38 -3 9 -1 12 4 9 6 -3 10 5 10 19 0 14 5 26 10 26 6 0 10 13 10
29 0 16 7 34 15 41 19 16 19 41 0 66 -8 10 -14 26 -15 34 0 8 9 0 20 -17 23
-38 30 -42 23 -13 -3 11 -9 20 -14 20 -5 0 -9 7 -9 15 0 8 5 15 10 15 6 0 10
-5 10 -11 0 -5 5 -7 11 -3 8 5 6 10 -5 16 -11 6 -15 20 -13 43 2 35 11 45 20
23 3 -7 4 -3 4 9 -1 12 -5 19 -11 16 -5 -4 -6 -1 -1 6 4 7 16 11 26 8 12 -3
19 0 19 9 0 7 -6 11 -14 8 -8 -3 -17 -1 -21 5 -3 6 1 14 10 17 10 4 13 13 10
25 -4 10 -2 27 4 36 6 10 11 14 12 8 1 -5 5 4 9 20 l8 30 -1 -35 c-1 -22 -7
-34 -14 -32 -7 1 -13 -5 -13 -13 0 -18 11 -19 29 -2 11 10 13 9 8 -5 -4 -10
-2 -18 4 -18 6 0 7 14 3 35 -7 39 1 69 16 60 6 -4 5 -13 -2 -25 -14 -23 -2
-41 13 -20 8 11 8 8 3 -10 -4 -14 -7 -43 -6 -65 0 -32 -1 -36 -9 -20 -9 20 -9
20 -6 0 1 -11 9 -21 17 -23 12 -2 15 8 13 48 0 27 3 48 7 45 4 -3 6 -15 2 -27
-3 -14 -2 -19 6 -14 7 4 12 3 12 -3 0 -5 -6 -12 -12 -15 -10 -5 -10 -7 0 -12
6 -3 10 -10 6 -15 -3 -5 2 -9 11 -9 10 0 13 5 9 12 -5 9 -2 8 10 -1 11 -9 13
-18 7 -24 -7 -7 -6 -17 1 -31 6 -12 11 -23 10 -25 -2 -2 11 -6 28 -8 20 -2 29
1 25 8 -4 6 -9 8 -12 5 -8 -8 -43 13 -43 26 0 6 9 3 21 -8 12 -10 22 -18 23
-16 0 2 9 0 18 -3 10 -4 15 -12 11 -18 -4 -6 0 -8 10 -4 10 3 17 2 17 -3 0 -6
-8 -10 -17 -11 -12 0 -13 -2 -5 -6 10 -4 10 -8 1 -19 -17 -21 2 -37 31 -26 19
7 21 10 7 15 -10 4 -17 2 -17 -3 0 -6 -5 -10 -10 -10 -6 0 -3 11 6 25 9 14 21
25 28 25 6 0 6 -4 -3 -9 -20 -13 4 -24 37 -17 l27 6 -25 -15 c-29 -17 -22 -19
15 -5 19 7 24 7 19 -2 -5 -7 0 -9 14 -6 24 7 51 -17 30 -25 -8 -4 -7 -6 5 -6
9 -1 17 -5 17 -11 0 -5 9 -10 19 -10 24 0 36 -28 13 -32 -9 -3 6 -4 34 -3 27
1 54 4 60 6 18 10 67 9 80 -2 10 -8 14 -8 14 0 0 12 58 4 78 -12 10 -8 16 -7
22 2 15 25 22 -9 15 -74 -8 -76 4 -295 16 -295 5 0 9 29 9 65 0 37 -4 65 -10
65 -6 0 -9 33 -9 83 1 64 3 74 9 47 5 -21 6 -5 3 42 l-6 76 188 2 c104 0 191
2 194 4 3 2 38 7 76 10 124 12 310 56 376 91 26 13 49 21 53 18 3 -4 6 -1 6 5
0 16 58 44 73 36 7 -4 8 -3 4 1 -4 5 7 16 24 26 30 15 35 15 79 -2 26 -10 78
-20 116 -24 107 -9 133 -14 222 -43 37 -12 51 -20 47 -31 -4 -11 -3 -11 9 -2
12 10 27 4 78 -27 35 -21 62 -44 60 -51 -1 -7 2 -10 6 -7 5 3 18 -4 28 -15 28
-32 55 -39 87 -22 15 7 33 11 39 7 6 -4 8 -3 4 4 -4 6 23 28 66 53 40 24 90
56 110 72 22 16 43 25 50 21 7 -4 10 -4 6 1 -11 11 60 58 74 49 6 -4 8 -3 5 3
-15 24 197 88 246 75 4 -1 16 2 27 8 25 13 50 3 61 -28 9 -24 10 -24 28 -6 9
10 17 31 16 46 -1 15 2 25 7 22 4 -3 8 -14 8 -24 0 -34 19 -31 25 4 8 39 -11
82 -58 131 -31 32 -31 33 -71 19 -37 -14 -83 -13 -154 2 -16 3 -30 20 -44 52
-12 26 -20 51 -19 55 1 5 -3 6 -8 3 -5 -4 -12 -2 -16 4 -4 6 -10 8 -15 5 -12
-8 -30 28 -30 59 0 14 10 35 22 47 13 12 16 18 8 14 -8 -4 -6 2 6 14 11 12 38
29 60 36 l39 14 -53 1 c-29 0 -63 -5 -75 -11 -33 -17 -77 -61 -77 -76 0 -8 -3
-12 -7 -10 -5 3 -8 -23 -8 -58 0 -35 3 -61 8 -58 4 2 7 -12 7 -32 0 -22 8 -47
20 -62 19 -25 19 -27 3 -45 -10 -12 -24 -16 -37 -12 -16 4 -17 3 -7 -4 11 -8
-4 -19 -60 -45 -135 -64 -212 -78 -294 -56 -52 14 -177 97 -169 111 4 7 2 8
-4 4 -15 -9 -64 23 -55 37 3 6 1 7 -5 3 -18 -11 -37 4 -21 16 11 8 10 9 -2 5
-20 -7 -59 19 -59 38 0 17 34 37 45 27 3 -4 5 -2 3 5 -3 10 51 60 127 120 11
9 29 24 41 35 11 10 31 21 44 23 12 2 25 7 29 11 3 4 -2 4 -11 1 -10 -4 -18
-5 -18 -4 0 6 131 102 135 100 3 -2 14 6 25 17 50 50 328 161 366 146 7 -3 16
-1 19 3 5 9 92 26 173 35 103 11 345 -45 326 -75 -5 -8 -3 -9 5 -4 20 12 76
-50 106 -116 19 -44 28 -83 32 -150 6 -88 16 -115 34 -88 10 15 8 270 -2 264
-3 -2 -14 22 -24 53 -36 105 -161 199 -316 237 -89 22 -322 30 -444 16 -97
-11 -312 -74 -361 -106 -39 -25 -146 -65 -157 -58 -5 3 -7 1 -4 -4 8 -13 -166
-106 -179 -95 -5 4 -6 3 -2 -2 10 -12 -29 -39 -44 -30 -7 5 -8 3 -3 -6 6 -10
4 -12 -11 -6 -10 4 -15 4 -11 0 10 -11 -63 -45 -77 -37 -6 3 -7 2 -3 -2 8 -9
-15 -22 -143 -80 l-76 -34 -49 24 c-53 27 -142 33 -220 15 -22 -5 -41 -7 -44
-5 -2 3 9 21 25 42 31 40 94 159 201 374 55 112 73 140 100 154 18 10 38 30
45 46 7 15 16 25 20 23 5 -3 8 -2 7 3 -4 22 2 64 9 60 4 -3 7 17 7 44 0 27 -3
49 -7 49 -10 0 -10 64 -1 74 9 9 13 30 20 98 10 105 -15 139 -85 118 -80 -24
-151 -52 -149 -59 4 -12 -42 -53 -52 -46 -6 3 -11 1 -11 -5 0 -6 -4 -8 -10 -5
-5 3 -10 1 -10 -4 0 -6 -6 -11 -14 -11 -7 0 -19 -7 -26 -15 -7 -8 -17 -12 -24
-8 -6 3 -8 3 -5 -1 8 -8 -45 -66 -60 -66 -8 0 -10 24 -8 78 3 58 -1 100 -18
167 -13 50 -21 93 -20 96 2 3 6 18 9 32 3 19 1 25 -6 21 -8 -5 -9 -1 -5 10 4
10 3 15 -3 11 -5 -3 -16 7 -24 23 -8 16 -31 43 -50 60 -19 16 -33 32 -31 34 2
2 -4 4 -13 5 -50 5 -145 20 -134 22 6 0 15 1 18 0 4 0 10 4 13 9 3 6 44 21 91
35 83 24 85 25 93 61 5 20 6 43 3 51 -6 17 -46 19 -95 5 -19 -5 -36 -8 -38 -6
-5 4 120 51 130 48 4 -1 6 4 5 10 -2 7 6 13 17 13 11 0 20 5 20 12 0 6 3 15 8
19 13 13 7 41 -15 69 -24 31 -32 66 -13 58 7 -2 15 3 19 12 5 14 14 15 49 10
23 -4 39 -4 36 -1 -4 4 -30 9 -58 11 -42 4 -52 1 -65 -16 -9 -13 -16 -16 -21
-10 -3 6 -1 11 4 11 6 0 11 5 11 11 0 5 -3 8 -8 5 -4 -2 -18 2 -32 10 l-25 15
24 -7 c17 -4 21 -3 16 6 -5 9 -27 11 -73 7 -36 -4 -73 -2 -83 4 -14 7 -19 6
-19 -3 0 -9 -3 -9 -10 2 -8 13 -11 13 -19 1 -7 -11 -10 -10 -14 5 -4 16 -5 17
-6 2 0 -10 -6 -18 -12 -18 -5 0 -7 5 -3 12 5 8 2 9 -11 4 -21 -7 -115 21 -115
35 0 5 -4 9 -10 9 -5 0 -7 -7 -4 -15 4 -8 1 -15 -6 -15 -6 0 -8 5 -5 10 3 6 2
10 -4 10 -7 0 -9 26 -6 70 4 77 1 90 -9 33z m172 -624 c-28 -16 -22 -30 8 -19
17 7 38 7 60 1 38 -10 87 -45 77 -55 -3 -3 -1 -6 6 -6 7 0 9 -4 6 -10 -3 -5 0
-7 8 -4 8 3 21 -6 31 -20 14 -22 14 -26 2 -26 -10 0 -13 -6 -10 -15 5 -12 -2
-15 -32 -14 -22 1 -55 -5 -74 -13 -19 -8 -41 -13 -48 -10 -7 2 -24 -3 -37 -12
-14 -9 -25 -13 -25 -9 0 5 -11 -10 -23 -32 -20 -36 -21 -43 -9 -67 17 -36 32
-36 32 0 0 26 15 52 30 52 4 0 7 -16 8 -35 1 -20 8 -46 17 -58 l15 -21 0 22
c0 37 27 92 46 92 10 0 14 -3 11 -7 -9 -8 24 -32 44 -33 27 0 31 -26 36 -208
4 -134 2 -177 -9 -189 -9 -12 -10 -15 0 -9 7 4 12 2 12 -5 0 -6 -56 -66 -125
-133 -69 -67 -142 -145 -162 -173 l-38 -50 -53 80 c-29 43 -49 76 -44 73 6 -4
10 68 11 184 1 127 -2 190 -9 190 -5 0 -10 -4 -10 -9 0 -5 -3 -18 -6 -28 -4
-13 -3 -14 3 -5 6 8 10 -5 10 -40 0 -29 -2 -42 -5 -28 -4 22 -6 20 -17 -19 -8
-24 -11 -49 -8 -57 3 -8 0 -14 -7 -14 -6 0 -8 -5 -4 -11 9 -15 24 9 24 38 0
12 4 24 8 27 5 3 8 -11 7 -31 -2 -21 -8 -39 -14 -41 -17 -6 -13 -22 7 -22 14
0 14 -2 3 -9 -10 -7 -20 -1 -35 22 -12 17 -31 34 -43 37 -17 4 -20 9 -13 20 5
8 10 10 10 4 0 -7 9 -14 20 -17 11 -3 17 -1 14 4 -3 6 0 17 7 25 16 20 5 29
-14 10 -22 -22 -31 5 -10 31 13 16 14 16 9 1 -3 -10 -1 -18 4 -18 6 0 10 16
10 35 0 19 4 35 10 35 5 0 7 7 3 16 -5 13 -7 13 -14 2 -10 -15 -12 -7 -3 16 3
9 10 14 14 11 5 -3 8 15 8 40 0 42 -17 77 -19 38 0 -12 -4 -8 -9 9 -9 30 -6
129 5 171 6 23 4 27 -14 27 -18 0 -20 4 -15 25 4 16 2 25 -6 25 -6 0 -8 5 -5
10 4 6 10 8 15 5 4 -3 13 2 19 9 10 12 8 14 -11 9 -17 -3 -19 -2 -9 5 8 6 10
15 5 23 -6 11 -5 12 8 2 18 -15 32 -5 18 12 -11 13 16 44 42 49 7 2 30 11 52
20 21 10 45 15 53 12 8 -3 12 -2 9 3 -5 7 65 43 89 45 6 1 16 7 23 14 7 6 19
12 25 12 7 0 4 -5 -5 -11z"/>
<path d="M120 2007 l0 -242 -41 -18 c-23 -10 -39 -20 -36 -23 3 -3 14 -1 25 5
12 6 23 11 26 11 3 0 6 -82 6 -182 0 -101 4 -188 8 -195 4 -6 7 77 6 185 l0
197 3 -178 c2 -112 7 -176 13 -172 6 3 10 0 10 -8 0 -10 8 -13 25 -9 14 2 22
8 19 13 -7 12 90 11 102 -1 6 -6 14 -2 22 11 11 17 11 20 0 13 -10 -6 -10 -4
1 9 10 13 10 17 1 17 -10 0 -10 3 -1 14 9 11 9 15 -1 19 -10 4 -10 6 0 6 14 1
17 31 2 31 -5 0 -10 5 -10 11 0 5 6 7 13 3 10 -6 10 -4 0 7 -7 7 -13 21 -13
31 0 10 6 18 13 18 8 0 7 4 -3 10 -13 8 -13 13 -2 31 8 11 9 18 3 14 -6 -3
-11 1 -11 10 0 9 4 14 9 11 4 -3 8 25 7 63 0 38 -4 67 -9 64 -9 -5 -5 27 6 44
4 6 1 14 -5 16 -7 3 -3 6 9 6 12 1 23 -4 25 -11 3 -8 6 -9 11 -1 4 6 -5 19
-19 28 -15 9 -23 12 -20 6 4 -6 2 -11 -3 -11 -8 0 -11 64 -11 195 l0 195 -90
0 -90 0 0 -243z"/>
<path d="M4180 303 c10 -22 7 -27 -13 -24 -5 1 -6 -2 -3 -7 3 -5 -1 -18 -9
-28 -8 -10 -15 -27 -15 -37 0 -10 -4 -16 -9 -13 -4 3 -6 -6 -3 -21 3 -14 1
-23 -4 -20 -12 7 -7 -119 5 -141 8 -13 10 -4 11 35 0 42 3 51 15 47 9 -4 15
-1 15 7 0 10 3 10 12 1 17 -17 28 -15 21 5 -4 11 -3 14 5 9 7 -4 10 -17 6 -31
-8 -31 26 -65 66 -65 33 0 67 39 56 65 -4 12 0 14 19 9 16 -4 35 0 50 10 15
10 25 12 25 6 0 -7 7 -4 16 5 12 12 15 28 12 65 -5 47 -4 48 18 38 13 -6 21
-15 17 -21 -3 -6 -1 -7 5 -3 15 9 55 -18 44 -29 -4 -5 -2 -5 5 -2 6 4 13 1 16
-5 2 -7 8 -10 12 -5 5 4 -1 18 -13 30 -12 13 -19 27 -15 32 5 4 2 5 -5 1 -7
-4 -20 -2 -28 5 -24 19 6 31 33 13 29 -19 29 -7 -1 30 -19 23 -29 27 -49 22
-18 -4 -27 -1 -31 10 -4 10 -16 14 -38 12 -30 -3 -33 -6 -32 -35 2 -39 -11
-44 -20 -8 -5 20 -13 25 -36 25 -35 0 -42 -10 -42 -61 1 -28 -3 -39 -14 -39
-8 0 -17 -7 -21 -15 -5 -14 -8 -14 -24 1 -12 11 -19 13 -19 5 0 -9 -4 -8 -14
1 -11 11 -11 20 0 57 7 24 17 47 23 50 5 4 6 12 2 19 -6 10 -11 10 -21 -3 -11
-14 -14 -13 -27 2 -13 16 -13 16 -3 -4z"/>
</g>
</svg>
