<?xml version="1.0" standalone="no"?>
<!DOCTYPE svg PUBLIC "-//W3C//DTD SVG 20010904//EN"
 "http://www.w3.org/TR/2001/REC-SVG-20010904/DTD/svg10.dtd">
<svg version="1.0" xmlns="http://www.w3.org/2000/svg"
 width="600.000000pt" height="338.000000pt" viewBox="0 0 600.000000 338.000000"
 preserveAspectRatio="xMidYMid meet">

<g transform="translate(0.000000,338.000000) scale(0.100000,-0.100000)"
fill="#000000" stroke="none">
<path d="M1284 3349 c3 -17 6 -44 6 -60 0 -15 6 -34 14 -41 30 -29 64 -56 76
-60 23 -7 -37 -38 -87 -44 -27 -4 -61 -17 -78 -29 -55 -41 -91 -38 -108 8 -3
9 -16 17 -27 17 -25 0 -50 22 -50 44 0 22 -16 28 -94 38 -97 11 -94 11 -156
-2 -30 -6 -67 -13 -81 -16 -15 -4 -31 0 -40 8 -8 8 -32 17 -54 21 -22 3 -50 9
-61 12 -14 4 -27 1 -35 -9 -8 -9 -20 -23 -27 -31 -14 -16 -68 -19 -122 -9 -22
5 -39 18 -56 45 -24 39 -54 52 -54 24 0 -30 -108 -61 -207 -60 l-43 0 0 -362
0 -363 31 0 c17 0 40 -5 51 -11 44 -24 200 -6 220 25 4 6 8 58 8 116 0 115 20
269 41 314 l13 28 9 -28 c5 -16 10 -89 13 -162 2 -73 8 -141 14 -151 6 -12 26
-21 57 -25 l48 -6 17 -58 c9 -31 19 -105 22 -164 5 -99 4 -108 -14 -118 -22
-12 -177 2 -209 20 -11 5 -36 10 -55 10 -19 0 -46 5 -60 11 -13 6 -36 9 -50 5
-20 -5 -26 -13 -26 -35 0 -42 -22 -55 -80 -48 l-50 6 0 -189 0 -190 98 -2
c257 -7 312 -2 312 28 0 20 -272 254 -296 254 -3 0 -12 7 -21 15 -12 13 -13
18 -2 31 27 33 165 -14 234 -79 11 -10 31 -25 45 -32 14 -7 54 -43 90 -79 35
-36 68 -66 73 -66 5 0 21 -9 36 -19 37 -26 76 -31 76 -9 0 45 48 48 65 3 5
-14 17 -25 27 -25 10 -1 133 0 273 1 321 2 371 1 500 -11 136 -13 180 -20 180
-31 0 -23 -56 -27 -470 -35 -195 -4 -377 -10 -405 -14 l-50 -7 45 -21 c58 -26
152 -39 370 -52 96 -5 252 -14 345 -20 292 -17 325 -19 520 -31 170 -10 994
-15 1135 -7 30 2 58 7 61 12 4 4 30 10 58 12 48 4 51 3 51 -20 0 -21 -6 -25
-42 -32 -48 -8 -42 -7 -223 -23 -501 -45 -1197 -43 -1665 4 -85 9 -218 20
-295 25 -237 17 -402 48 -425 79 -3 4 -26 15 -53 25 -26 10 -69 33 -95 52 -71
52 -86 56 -124 36 -28 -14 -65 -17 -230 -17 l-198 0 0 -882 0 -883 3000 0
3000 0 0 1685 0 1686 -1175 -3 c-923 -2 -1177 -6 -1187 -15 -16 -17 -43 -16
-58 2 -14 17 -133 21 -174 5 -16 -6 -27 -6 -31 0 -4 6 -28 10 -54 10 -45 0
-48 -1 -44 -24 4 -19 -3 -28 -42 -51 l-47 -27 -37 19 c-30 17 -36 24 -35 51
l2 32 -89 0 -89 0 0 -35 c0 -19 -1 -38 -1 -42 -1 -5 12 -14 29 -22 17 -8 32
-23 34 -34 3 -22 2 -21 111 -71 42 -19 78 -40 78 -46 1 -5 2 -32 3 -60 1 -53
25 -84 57 -74 21 6 35 -26 17 -38 -7 -4 -29 -8 -49 -8 -19 0 -39 -4 -45 -9 -5
-5 -25 -13 -44 -18 -30 -8 -35 -13 -35 -40 -1 -18 -9 -41 -19 -52 -22 -24 -36
-27 -36 -8 0 7 -14 18 -30 24 -17 6 -34 22 -39 35 l-10 23 -2 -25 c-3 -41 1
-83 13 -112 13 -36 -15 -106 -36 -89 -7 6 -16 8 -19 4 -4 -3 -9 2 -13 11 -9
23 -53 20 -81 -6 -19 -17 -28 -20 -41 -12 -21 13 -27 50 -12 69 7 8 9 27 4 49
-9 49 7 66 65 67 60 2 103 11 108 25 2 6 -10 8 -32 6 -21 -3 -35 0 -35 7 0 6
15 11 34 11 19 0 37 4 41 9 9 15 -45 51 -78 51 -17 0 -28 3 -24 6 17 17 -30
33 -139 48 -65 10 -148 21 -184 27 -45 6 -73 6 -91 -2 -19 -7 -38 -7 -63 0
-35 9 -38 8 -47 -17 -6 -15 -11 -40 -12 -57 -3 -39 -26 -43 -65 -10 -16 14
-34 25 -40 25 -5 0 -25 11 -45 24 -25 17 -37 21 -40 12 -3 -7 -26 -13 -54 -15
-41 -1 -52 2 -71 23 -13 15 -28 23 -37 20 -24 -10 -65 4 -59 20 8 21 -111 32
-131 12 -8 -8 -31 -20 -51 -26 -34 -11 -38 -11 -61 14 -15 16 -34 26 -53 26
-15 0 -35 3 -44 6 -21 8 -20 40 2 48 9 3 24 10 32 15 22 14 142 68 165 74 11
3 40 13 65 22 25 10 63 19 84 21 63 6 86 36 42 55 -20 10 -38 5 -117 -34 -140
-68 -318 -137 -356 -137 -47 0 -57 25 -49 127 l7 83 -82 0 -81 0 6 -31z m2616
11 c0 -5 -4 -10 -10 -10 -5 0 -10 5 -10 10 0 6 5 10 10 10 6 0 10 -4 10 -10z
m-307 -257 c4 -3 0 -17 -8 -30 -9 -13 -11 -23 -5 -23 5 0 10 -10 10 -23 0 -13
5 -28 10 -33 15 -15 -7 -31 -45 -35 -38 -4 -55 6 -50 31 2 11 -1 22 -7 26 -7
4 -5 10 3 16 11 7 11 11 1 15 -6 2 -10 9 -6 14 3 5 0 9 -6 9 -6 0 -8 5 -5 10
3 6 0 10 -7 11 -7 1 -2 5 12 9 32 10 95 12 103 3z m-2907 -46 c39 -3 58 -18
74 -57 10 -24 9 -39 -5 -83 l-17 -55 -79 2 c-56 1 -79 5 -79 14 0 6 -4 12 -9
12 -9 0 -17 32 -26 107 -7 57 13 77 69 69 23 -3 55 -7 72 -9z m380 -42 c9 -14
24 -25 33 -25 22 0 43 -22 83 -84 24 -38 29 -52 21 -65 -14 -21 -67 -17 -111
9 -39 23 -52 19 -52 -16 0 -24 -5 -27 -49 -28 -21 -1 -26 -8 -36 -57 -11 -55
-49 -117 -72 -118 -6 -1 -14 8 -18 19 -8 26 -61 64 -70 50 -4 -6 -4 -24 0 -40
5 -23 3 -30 -9 -30 -12 0 -14 10 -10 53 3 28 2 47 -3 41 -14 -18 -45 -25 -59
-13 -18 15 -18 60 -1 83 22 30 49 16 66 -34 l15 -45 6 31 c10 44 16 52 50 59
17 4 30 8 30 10 0 2 -11 23 -25 46 -16 29 -25 59 -25 90 0 60 16 74 74 66 32
-5 47 -2 56 8 7 9 29 15 51 15 30 0 42 -5 55 -25z m-942 9 c26 -10 22 -138 -4
-164 -30 -30 -50 -16 -52 39 -2 66 1 83 17 108 17 26 17 25 39 17z m2691 -98
c11 -2 28 -4 38 -5 9 0 17 -8 17 -16 0 -18 3 -17 -38 -6 -17 5 -32 7 -32 3 0
-7 -28 -21 -82 -41 -25 -10 -28 -15 -30 -63 0 -29 -1 -61 0 -70 1 -10 -3 -18
-8 -18 -6 0 -10 -11 -10 -25 0 -14 -4 -25 -10 -25 -5 0 -10 10 -10 21 0 12
-14 61 -30 109 -24 71 -28 93 -20 115 5 14 14 23 20 20 5 -3 10 -1 10 6 0 9
21 10 83 5 45 -4 91 -8 102 -10z m-1080 -103 c-4 -54 -8 -134 -9 -178 -3 -154
-25 -208 -69 -167 -28 26 -75 44 -97 37 -9 -3 -28 4 -42 15 l-26 20 -6 -31
c-11 -56 -7 -127 8 -142 9 -8 36 -15 67 -16 32 0 59 -7 70 -17 14 -13 30 -15
76 -10 129 14 190 4 163 -29 -4 -5 -11 -32 -15 -58 -10 -68 -29 -77 -130 -64
-44 5 -91 9 -105 8 -75 -5 -162 -1 -182 10 -13 6 -33 21 -46 32 -16 15 -33 21
-57 19 l-33 -3 4 43 c3 24 9 46 13 51 4 4 28 8 54 9 35 2 47 6 47 18 0 9 4 20
9 26 5 5 11 86 14 179 4 174 16 240 40 216 8 -8 12 -48 12 -116 0 -58 1 -105
3 -105 1 0 10 4 20 9 9 5 26 12 37 16 18 5 17 8 -14 37 -23 22 -30 35 -24 47
4 9 8 45 8 81 0 77 7 90 45 90 15 0 30 7 33 15 8 20 77 54 111 55 l28 0 -7
-97z m1646 48 c5 -22 7 -109 3 -122 -5 -18 -45 -39 -74 -39 -22 0 -36 37 -27
72 4 12 1 28 -5 35 -15 19 5 61 34 72 21 8 66 -4 69 -18z m1334 -56 c10 -19
15 -40 12 -47 -4 -9 -6 -8 -6 3 -1 9 -8 22 -16 29 -14 11 -22 50 -10 50 2 0
11 -16 20 -35z m-2387 -20 c2 -21 -2 -49 -9 -61 -10 -19 -8 -30 10 -66 37 -78
26 -125 -39 -158 -45 -23 -44 -20 -28 -71 8 -29 8 -45 0 -64 -9 -19 -9 -25 0
-25 7 0 25 -12 40 -27 32 -31 37 -73 14 -128 -17 -41 -45 -46 -75 -14 -25 27
-30 49 -18 79 6 14 9 33 8 43 -1 10 2 24 8 30 7 9 4 26 -9 55 -17 38 -18 45
-4 77 11 27 11 35 2 36 -57 3 -70 7 -84 21 -13 12 -15 26 -10 60 11 75 53 124
82 96 13 -13 34 5 34 30 0 35 48 134 63 129 7 -2 13 -21 15 -42z m-120 -38 c2
-28 -1 -37 -12 -37 -18 0 -31 42 -22 66 10 27 31 9 34 -29z m2294 -6 c-17 -10
3 -28 38 -33 15 -2 24 -9 22 -17 -2 -7 5 -22 14 -32 9 -10 17 -35 17 -57 1
-25 6 -38 13 -35 7 2 14 -9 16 -26 3 -17 1 -31 -4 -31 -4 0 -8 7 -8 15 0 8 -4
15 -10 15 -5 0 -10 -9 -10 -20 0 -28 -17 -25 -24 5 -9 34 -26 22 -26 -18 0
-40 -12 -59 -32 -52 -15 6 -48 -18 -48 -36 0 -5 -7 -9 -15 -9 -8 0 -15 9 -15
20 0 11 5 20 11 20 6 0 9 10 8 23 -2 12 1 28 5 36 7 11 2 13 -31 9 -32 -5 -42
-2 -51 13 -11 16 -9 21 11 30 29 13 62 109 37 109 -5 0 -10 -11 -10 -25 0 -22
-3 -24 -19 -16 -16 9 -18 8 -14 -7 5 -19 -33 -45 -82 -56 l-30 -6 25 14 c14 8
29 12 33 9 5 -3 6 5 3 18 -3 13 -3 18 0 12 7 -15 34 -17 34 -3 0 6 -5 10 -11
10 -8 0 -8 5 1 15 7 8 18 15 26 15 7 0 16 5 20 12 4 7 3 8 -4 4 -7 -4 -12 -2
-12 3 0 6 6 11 14 11 7 0 21 11 30 25 10 15 22 22 32 18 9 -3 21 3 31 16 8 12
18 20 21 16 4 -3 1 -10 -6 -14z m-3934 -27 c42 -29 18 -104 -35 -104 -20 0
-23 5 -23 35 0 34 18 85 29 85 4 0 17 -7 29 -16z m2970 -121 c-5 -25 -28 -28
-28 -4 0 12 6 21 16 21 9 0 14 -7 12 -17z m-730 -60 c-6 -7 -15 -13 -20 -13
-15 0 -21 30 -8 45 11 13 14 13 25 -2 10 -13 10 -22 3 -30z m88 -10 c-4 -25
-26 -28 -26 -4 0 12 6 21 14 21 8 0 13 -8 12 -17z m-2013 -7 c3 -8 1 -42 -5
-75 -9 -47 -9 -70 1 -103 15 -48 14 -51 -14 -56 -11 -1 -31 -14 -45 -27 -14
-14 -34 -25 -43 -25 -16 0 -17 9 -11 97 6 85 10 99 31 117 13 12 25 35 27 51
5 38 2 35 30 35 13 0 26 -7 29 -14z m2105 -83 c9 -7 26 -13 39 -13 22 0 23 -3
23 -85 0 -114 -40 -211 -74 -178 -3 4 -28 6 -55 4 -27 -1 -52 2 -56 8 -3 6
-14 11 -24 11 -10 0 -24 7 -31 15 -7 9 -33 25 -56 36 -26 12 -50 31 -59 49 -9
17 -19 30 -24 30 -5 0 -12 8 -15 17 -8 20 19 44 40 36 10 -4 14 3 14 24 0 46
38 62 130 53 87 -9 98 -6 113 29 l11 26 3 -25 c3 -14 12 -31 21 -37z m1582 47
c0 -5 -5 -10 -11 -10 -5 0 -7 5 -4 10 3 6 8 10 11 10 2 0 4 -4 4 -10z m-3230
-66 c0 -23 -41 -51 -59 -39 -13 8 -6 38 16 73 14 23 15 23 28 5 8 -10 15 -27
15 -39z m1988 17 c17 -10 32 -75 22 -91 -4 -6 -20 -10 -36 -8 -37 4 -55 59
-28 89 19 21 23 22 42 10z m1262 -6 c0 -8 -4 -15 -10 -15 -5 0 -10 7 -10 15 0
8 5 15 10 15 6 0 10 -7 10 -15z m-2490 -5 c0 -5 -4 -10 -10 -10 -5 0 -10 5
-10 10 0 6 5 10 10 10 6 0 10 -4 10 -10z m2300 -6 c0 -8 -5 -12 -10 -9 -6 4
-8 11 -5 16 9 14 15 11 15 -7z m113 -81 c-7 -2 -19 -2 -25 0 -7 3 -2 5 12 5
14 0 19 -2 13 -5z m-159 -43 c-8 -43 -12 -48 -25 -30 -7 11 -8 6 -3 -15 7 -28
7 -29 -10 -12 -10 9 -24 17 -32 17 -8 0 -14 5 -14 11 0 5 4 7 10 4 5 -3 17 9
26 27 10 21 23 34 35 34 16 0 18 -5 13 -36z m36 -11 c0 -5 4 -7 10 -4 10 6 59
-24 60 -37 0 -13 -38 -9 -44 5 -5 10 -7 10 -12 0 -11 -25 -34 -14 -34 17 0 17
5 30 10 30 6 0 10 -5 10 -11z m-2422 -42 c3 -12 -3 -17 -20 -17 -13 0 -29 -5
-36 -12 -9 -9 -12 -8 -12 6 0 9 3 15 8 13 4 -3 14 2 21 11 13 14 13 15 -6 10
-15 -4 -20 -2 -17 7 7 18 58 3 62 -18z m132 -21 c0 -12 -10 -14 -38 -7 -2 1 0
6 3 11 9 15 35 12 35 -4z m1381 -27 c8 -14 -17 -74 -45 -107 l-19 -22 -20 21
c-10 11 -22 39 -25 61 -4 33 -1 44 14 55 22 16 83 11 95 -8z m73 -94 c-7 -28
-6 -27 -28 -19 -21 8 -20 38 1 59 14 15 17 15 25 1 5 -8 6 -27 2 -41z m-1504
-269 c0 -11 -19 -15 -25 -6 -3 5 1 10 9 10 9 0 16 -2 16 -4z m2278 -152 c12
-4 22 -11 22 -17 0 -5 7 -15 16 -21 8 -7 18 -31 21 -54 4 -30 10 -42 22 -42
10 0 17 -9 18 -22 2 -24 27 -43 58 -43 11 0 20 -7 20 -15 0 -8 6 -15 13 -14
37 3 42 5 39 16 -3 18 94 29 113 13 39 -33 124 -67 177 -72 46 -4 75 0 133 20
41 14 95 30 120 37 25 7 56 17 70 23 14 6 28 10 33 9 4 -1 7 3 7 8 0 6 5 10
12 10 6 0 19 7 29 16 24 22 155 22 177 0 8 -8 17 -37 19 -65 3 -41 1 -51 -12
-51 -17 0 -18 -2 -9 -24 4 -11 14 -14 33 -11 22 4 23 4 6 -4 -11 -5 -30 -7
-42 -4 -13 3 -23 0 -23 -6 0 -6 9 -11 19 -11 27 0 35 -17 11 -23 -24 -6 -27
-27 -3 -27 27 0 4 -14 -24 -15 -32 0 -40 -17 -18 -38 8 -9 15 -25 15 -36 0
-12 5 -21 10 -21 6 0 10 -7 10 -16 0 -11 -6 -13 -19 -9 -15 4 -20 0 -23 -17
-2 -18 -10 -23 -31 -23 -16 -1 -32 -6 -36 -13 -7 -11 -111 -35 -111 -25 0 2
-10 -3 -22 -11 -12 -9 -39 -16 -60 -16 -20 0 -40 -5 -43 -11 -4 -6 -13 -8 -21
-5 -8 3 -14 1 -14 -5 0 -6 -4 -8 -9 -4 -5 3 -47 1 -92 -4 -66 -7 -89 -6 -110
4 -15 8 -29 11 -33 8 -3 -4 -6 -1 -6 5 0 7 -6 12 -14 12 -8 0 -16 7 -20 15 -3
8 -12 15 -19 15 -8 0 -27 17 -42 38 -15 20 -43 51 -61 68 l-33 32 -16 -40
c-27 -69 -127 -86 -214 -37 -34 19 -48 21 -98 14 -85 -11 -165 -6 -184 11 -15
14 -23 12 -73 -15 -77 -41 -116 -45 -116 -11 0 10 -9 24 -20 30 -15 8 -20 21
-20 53 0 24 -5 48 -11 54 -8 8 -7 20 5 44 9 18 16 42 16 55 0 34 34 48 135 56
50 3 101 8 115 10 20 2 26 -2 28 -20 l3 -23 20 25 c28 36 64 122 79 189 14 60
22 66 78 51z m-908 -33 c0 -10 -7 -24 -15 -31 -21 -17 -39 1 -30 29 8 27 45
28 45 2z m938 -1151 c45 -5 96 -17 114 -27 18 -9 36 -16 40 -15 4 1 12 -8 18
-19 7 -12 18 -18 26 -15 9 3 12 1 9 -4 -4 -6 15 -10 49 -10 53 0 56 -1 56 -25
0 -16 -6 -25 -15 -25 -8 0 -15 -4 -15 -9 0 -21 -34 -41 -70 -41 -41 0 -67 19
-28 21 13 1 28 2 33 4 6 1 15 3 20 4 6 1 -1 7 -14 12 -16 6 -28 6 -35 -1 -5
-5 -20 -10 -32 -10 -12 0 -24 -6 -27 -12 -3 -10 -7 -10 -18 -2 -8 6 -32 12
-54 12 -22 1 -55 6 -72 11 -20 6 -33 6 -33 0 0 -18 -18 -8 -24 14 -4 15 -8 18
-14 10 -6 -9 -13 -1 -24 25 -13 32 -15 61 -9 113 0 6 9 8 20 4 10 -3 55 -10
99 -15z m-129 -40 c0 -10 -3 -8 -9 5 -12 27 -12 43 0 25 5 -8 9 -22 9 -30z"/>
<path d="M4435 2710 c-3 -5 -1 -10 4 -10 6 0 11 5 11 10 0 6 -2 10 -4 10 -3 0
-8 -4 -11 -10z"/>
<path d="M4492 2519 c2 -6 8 -10 13 -10 5 0 11 4 13 10 2 6 -4 11 -13 11 -9 0
-15 -5 -13 -11z"/>
<path d="M4110 1440 c0 -5 5 -10 11 -10 5 0 7 5 4 10 -3 6 -8 10 -11 10 -2 0
-4 -4 -4 -10z"/>
<path d="M4580 1260 c0 -5 5 -10 11 -10 5 0 7 5 4 10 -3 6 -8 10 -11 10 -2 0
-4 -4 -4 -10z"/>
<path d="M2103 3373 c9 -2 23 -2 30 0 6 3 -1 5 -18 5 -16 0 -22 -2 -12 -5z"/>
<path d="M2280 3362 c0 -10 -11 -28 -25 -40 -37 -32 -32 -47 17 -50 48 -3 92
-27 85 -46 -4 -10 7 -12 41 -8 41 3 50 0 71 -22 14 -14 33 -26 43 -26 11 0 27
-4 37 -10 11 -5 37 -6 61 -2 37 6 53 18 66 50 1 1 23 -5 48 -13 49 -17 89 -14
137 11 21 10 25 18 21 43 -5 36 -25 54 -75 71 -21 6 -50 23 -64 36 -26 24 -27
24 -244 24 -205 0 -219 -1 -219 -18z"/>
<path d="M2144 3215 c-4 -9 -2 -21 5 -28 8 -8 14 -8 22 0 9 9 8 16 -5 28 -15
15 -17 15 -22 0z"/>
<path d="M2028 3108 c13 -13 92 -21 92 -9 0 12 -6 13 -62 15 -20 1 -34 -2 -30
-6z"/>
<path d="M260 2390 c0 -13 11 -13 30 0 12 8 11 10 -7 10 -13 0 -23 -4 -23 -10z"/>
</g>
</svg>
