<?xml version="1.0" standalone="no"?>
<!DOCTYPE svg PUBLIC "-//W3C//DTD SVG 20010904//EN"
 "http://www.w3.org/TR/2001/REC-SVG-20010904/DTD/svg10.dtd">
<svg version="1.0" xmlns="http://www.w3.org/2000/svg"
 width="355.000000pt" height="479.000000pt" viewBox="0 0 355.000000 479.000000"
 preserveAspectRatio="xMidYMid meet">

<g transform="translate(0.000000,479.000000) scale(0.100000,-0.100000)"
fill="#000000" stroke="none">
<path d="M0 2395 l0 -2395 790 0 c435 0 790 2 790 5 0 3 -15 36 -34 73 -74
149 -194 457 -182 469 2 2 40 -16 83 -40 75 -43 157 -72 330 -116 64 -16 113
-21 220 -21 205 1 226 9 269 107 36 80 56 51 84 -124 12 -70 25 -144 30 -163
5 -19 12 -70 16 -112 l6 -78 574 0 574 0 0 2395 0 2395 -1775 0 -1775 0 0
-2395z m1820 2041 c0 -3 -4 -8 -10 -11 -5 -3 -10 -1 -10 4 0 6 5 11 10 11 6 0
10 -2 10 -4z m34 -38 c-5 -7 -1 -9 9 -5 17 6 27 -11 27 -45 0 -12 8 -27 18
-35 9 -8 11 -11 3 -7 -11 5 -13 3 -8 -10 4 -10 7 -25 8 -34 0 -11 2 -12 6 -4
2 6 19 12 36 12 l32 1 -27 15 c-27 14 -37 38 -19 48 4 3 17 -1 27 -9 19 -15
19 -15 0 -8 -13 4 -17 3 -12 -5 4 -7 19 -12 33 -12 17 0 27 -7 30 -21 3 -11
11 -18 19 -15 19 7 24 -7 9 -21 -11 -10 -17 -10 -27 0 -14 15 -38 12 -38 -4 0
-6 6 -9 13 -8 26 3 37 -2 37 -16 0 -10 10 -15 26 -15 22 0 25 -4 21 -21 -5
-19 -4 -20 12 -5 24 22 34 20 21 -5 -11 -19 -10 -20 9 -9 17 9 21 8 21 -5 0
-8 7 -15 16 -15 10 0 14 -5 10 -16 -3 -8 -2 -13 3 -10 4 3 7 -18 5 -47 -3 -47
-2 -48 5 -14 4 20 11 41 16 45 4 4 5 -6 1 -23 -7 -28 -6 -29 7 -11 14 19 14
19 25 0 5 -10 8 -31 5 -46 -6 -32 18 -48 42 -28 12 10 15 10 15 -2 0 -8 -6
-20 -12 -27 -11 -11 -9 -13 10 -8 18 4 22 1 22 -16 0 -18 2 -19 10 -7 8 13 10
12 10 -2 0 -10 4 -18 9 -18 12 0 42 -47 44 -69 1 -17 27 -50 27 -34 0 4 11
-12 24 -37 16 -31 22 -55 19 -76 -5 -32 8 -51 28 -38 8 4 8 9 0 17 -14 14 -14
27 0 27 5 0 7 -4 4 -10 -3 -5 -1 -10 4 -10 6 0 11 5 11 10 0 6 12 10 27 10 23
0 28 -10 6 -13 -14 -2 -34 -50 -25 -59 6 -6 14 3 20 21 8 24 17 31 36 31 16 0
26 6 26 15 0 11 -14 15 -57 17 l-58 1 45 7 c25 4 35 8 22 8 -13 1 -20 7 -17
12 3 6 18 7 32 4 18 -5 24 -3 19 5 -4 6 -15 11 -24 11 -10 0 -18 8 -19 18 0
17 -12 136 -17 179 -1 13 -5 26 -9 29 -4 4 -7 18 -7 30 0 12 -7 29 -15 38 -8
8 -15 20 -15 26 0 6 -9 30 -19 53 -16 36 -19 60 -12 100 0 4 6 7 12 7 5 0 8
-4 5 -9 -3 -5 1 -14 9 -21 13 -11 14 -10 10 1 -4 10 2 15 17 17 24 2 78 -49
78 -74 0 -8 7 -14 16 -14 11 0 14 -5 10 -16 -4 -12 -2 -15 9 -10 8 3 15 2 15
-3 0 -14 -28 -33 -39 -26 -7 3 -8 0 -5 -9 5 -12 10 -13 25 -5 11 5 24 7 29 4
6 -3 10 -2 10 4 0 17 80 -72 86 -96 4 -14 11 -20 21 -16 12 5 14 1 8 -18 -4
-16 -3 -20 3 -10 7 10 11 10 17 1 4 -6 2 -17 -4 -23 -14 -14 -14 -27 0 -27 5
0 8 4 5 9 -3 5 1 12 10 15 10 4 13 2 8 -6 -4 -6 0 -16 8 -22 22 -16 55 -88 50
-110 -2 -10 0 -16 6 -12 22 13 47 -55 31 -86 -6 -11 -6 -18 0 -18 5 0 8 -18 7
-40 -1 -26 2 -40 10 -40 18 0 20 -9 14 -60 l-6 -45 -10 35 -10 35 -8 -44 c-3
-24 -4 -46 -1 -49 3 -3 5 6 5 19 0 17 3 20 9 10 14 -22 31 -3 32 37 l1 37 9
-34 c8 -25 6 -41 -5 -66 -9 -18 -16 -41 -15 -52 0 -10 6 -2 12 17 11 35 11 34
20 -37 5 -39 6 -80 2 -90 -4 -10 -7 -30 -6 -45 2 -18 -4 -30 -19 -38 -17 -9
-19 -14 -10 -26 10 -11 9 -15 -3 -20 -9 -3 -14 -11 -11 -18 5 -13 -42 -66 -59
-66 -6 0 -7 -3 -4 -7 6 -5 -30 -37 -43 -38 -3 0 -9 -3 -15 -6 -13 -7 -142 -4
-182 5 -18 4 -38 15 -44 24 -9 15 -10 15 -5 -2 5 -16 2 -17 -21 -12 -86 21
-103 28 -103 41 0 8 -4 15 -10 15 -5 0 -10 -5 -10 -11 0 -13 -83 -2 -88 12 -2
4 -10 5 -17 3 -8 -3 -24 1 -37 10 -25 18 -42 21 -33 6 9 -14 -8 -12 -39 3 -14
8 -23 17 -19 20 7 8 -10 10 -44 7 -13 -1 -23 3 -23 9 0 6 8 11 18 12 11 0 12
2 4 6 -17 6 -44 -16 -35 -30 4 -7 0 -8 -11 -4 -10 4 -27 7 -39 7 -35 0 -55 16
-39 32 15 15 16 28 2 28 -5 0 -10 -7 -10 -16 0 -14 -10 -15 -77 -9 -43 4 -85
11 -95 16 -9 5 -35 9 -57 9 -22 0 -43 5 -46 10 -3 6 -29 10 -57 10 -44 0 -49
2 -38 15 7 8 20 15 29 14 12 0 12 -2 -4 -8 -12 -5 3 -8 43 -8 34 -1 62 3 62 8
0 5 10 9 23 9 18 0 19 2 7 10 -16 10 -51 3 -61 -11 -3 -5 -20 -4 -39 2 -25 9
-41 9 -66 0 -19 -7 -44 -9 -57 -5 -12 4 -62 12 -112 19 -59 7 -89 16 -88 23 4
16 -14 16 -19 0 -3 -7 -31 -13 -72 -15 -46 -3 -66 -1 -61 7 3 5 2 10 -3 10 -5
0 -12 -10 -15 -22 -5 -18 -8 -19 -21 -8 -14 10 -16 9 -16 -6 -1 -18 -1 -18
-14 -2 -7 10 -16 15 -19 11 -4 -3 -7 -1 -7 6 0 7 -5 9 -11 6 -6 -5 -5 -11 6
-18 13 -10 13 -17 3 -44 -7 -18 -17 -34 -23 -36 -5 -2 -2 -3 7 -2 9 2 19 -2
22 -9 3 -6 3 2 -1 17 -5 27 -4 28 15 16 11 -7 19 -17 16 -21 -3 -4 2 -5 10 -2
11 4 19 -2 25 -17 5 -13 10 -18 10 -10 1 14 49 -31 51 -47 1 -4 10 -10 21 -14
12 -5 19 -17 20 -35 0 -15 3 -22 6 -15 8 20 20 14 42 -23 11 -19 16 -35 10
-35 -5 0 -14 11 -19 25 -14 36 -21 31 -9 -5 10 -26 25 -36 45 -27 8 3 37 -54
30 -60 -3 -3 -12 -1 -19 5 -8 7 -17 9 -20 5 -4 -3 -7 -1 -7 5 0 7 -5 12 -11
12 -17 0 -38 31 -39 56 0 18 -6 20 -49 19 -26 -1 -53 -5 -59 -9 -6 -3 -21 -2
-34 2 -12 5 -40 8 -60 6 -21 -1 -38 2 -38 7 0 5 -5 9 -11 9 -5 0 -8 -4 -4 -9
3 -5 1 -12 -5 -16 -5 -3 -10 -17 -10 -31 0 -14 -4 -22 -10 -19 -6 3 -10 1 -10
-6 0 -6 8 -9 20 -6 11 3 18 2 15 -3 -3 -4 5 -11 18 -14 12 -4 33 -21 47 -38
14 -18 19 -28 11 -24 -10 6 -12 5 -7 -2 4 -7 13 -12 19 -12 12 -1 57 -64 57
-81 0 -5 5 -9 10 -9 6 0 10 -10 10 -22 0 -12 3 -18 7 -14 4 4 15 -13 24 -36
10 -24 18 -36 19 -28 0 8 7 2 15 -14 12 -22 12 -32 4 -43 -7 -7 -9 -16 -5 -20
3 -3 6 -1 6 5 0 7 8 12 18 11 10 0 12 -3 5 -6 -17 -6 -16 -23 1 -23 8 0 17 -7
20 -16 5 -12 2 -15 -11 -10 -14 6 -13 2 5 -17 23 -24 30 -57 11 -57 -5 0 -7
-4 -4 -10 3 -5 15 -10 26 -10 11 0 18 -4 14 -9 -3 -5 6 -35 21 -66 14 -31 23
-63 20 -71 -3 -7 -1 -16 5 -19 5 -4 6 -12 2 -18 -10 -16 -11 -47 -2 -47 4 0 9
6 12 13 2 6 4 -4 5 -23 1 -19 3 -53 6 -75 2 -22 -1 -46 -6 -52 -6 -7 -6 -13
-1 -13 5 0 9 -17 10 -37 1 -21 -1 -30 -4 -20 -5 18 -5 18 -19 0 -13 -17 -15
-17 -30 2 -35 45 -36 54 -9 67 14 6 25 15 25 19 0 9 -28 1 -47 -14 -7 -5 -14
-7 -14 -3 -7 32 -21 56 -30 50 -13 -8 -11 30 3 44 9 9 8 12 -4 12 -9 0 -19 -7
-22 -16 -4 -9 -11 -12 -18 -7 -7 4 -20 8 -28 8 -8 0 -14 5 -13 12 3 16 -40 29
-45 14 -5 -14 -68 -15 -77 -1 -3 6 -15 10 -26 10 -18 0 -23 -10 -20 -37 1 -7
-3 -13 -9 -13 -5 0 -10 5 -10 11 0 6 -9 0 -19 -13 -11 -12 -33 -39 -49 -58
-16 -19 -35 -52 -41 -73 -7 -20 -17 -35 -22 -31 -5 3 -6 10 -3 16 4 7 2 8 -4
4 -9 -5 -9 -13 -2 -26 5 -10 10 -38 10 -62 -1 -35 -3 -40 -13 -28 -7 8 -25 17
-42 19 -16 1 -34 6 -40 9 -5 4 -19 6 -30 5 -11 -2 -14 0 -7 3 21 9 13 22 -9
17 -14 -4 -27 0 -35 11 -7 10 -17 15 -23 11 -6 -3 -11 -2 -11 3 0 5 -10 13
-22 16 -22 7 -22 7 -3 16 18 8 17 9 -7 9 -31 1 -38 17 -10 23 14 3 13 5 -6 10
-12 3 -20 2 -16 -3 3 -5 -2 -9 -10 -9 -9 0 -16 5 -16 10 0 6 -5 10 -11 10 -14
0 -39 26 -39 40 0 6 -4 8 -10 5 -14 -9 -12 9 2 23 10 10 8 14 -10 18 -23 7
-31 24 -10 24 6 0 9 2 6 5 -7 7 -38 -5 -38 -15 0 -5 9 -12 20 -15 11 -4 18
-11 15 -16 -11 -16 -55 24 -49 45 4 12 2 16 -6 11 -7 -4 -13 1 -17 14 -3 12
-11 21 -18 21 -12 0 -45 57 -45 79 0 6 6 11 13 11 11 0 37 43 37 62 0 4 -7 8
-16 8 -10 0 -13 -6 -9 -19 3 -12 0 -21 -10 -25 -10 -4 -15 1 -15 14 0 11 -3
20 -7 20 -5 0 -9 43 -10 95 -1 52 2 95 6 95 5 0 8 12 9 28 2 79 5 112 12 112
4 0 5 12 2 28 -4 26 -4 26 11 7 15 -19 16 -17 15 34 0 36 5 58 14 65 8 6 18
23 21 37 5 18 16 29 33 33 20 5 25 12 21 26 -6 22 3 26 19 10 6 -6 10 7 10 38
1 26 -1 35 -3 20 -5 -33 -9 -34 -31 -10 -10 9 -14 13 -10 8 22 -29 1 -24 -117
24 -11 5 -27 11 -35 13 -9 3 -5 6 9 6 13 1 21 4 18 8 -4 3 -2 12 4 20 9 10 6
13 -15 13 -15 0 -25 -4 -22 -9 3 -5 -1 -12 -10 -15 -21 -8 -95 24 -87 37 4 6
-5 8 -23 4 -27 -6 -27 -6 -7 5 13 6 23 15 23 20 0 12 -12 9 -34 -7 -19 -14
-36 -12 -36 6 0 5 7 9 16 9 9 0 12 5 8 12 -5 8 0 9 14 6 12 -4 20 -3 17 2 -5
8 24 25 38 22 13 -3 71 25 92 44 11 11 31 24 45 30 33 15 86 13 82 -3 -1 -7 2
-13 8 -13 13 0 13 17 0 25 -6 4 -8 27 -5 55 3 33 -1 58 -12 81 -9 18 -16 45
-16 61 0 18 -6 28 -15 28 -10 0 -13 8 -9 26 3 18 1 24 -9 20 -9 -3 -14 2 -14
14 0 11 -4 20 -8 20 -5 0 -9 6 -9 14 0 9 18 4 61 -17 34 -17 64 -30 67 -30 3
1 22 -13 42 -31 20 -18 38 -28 40 -23 2 7 27 1 63 -13 32 -14 65 -23 73 -22 7
2 10 -1 6 -7 -3 -6 -1 -11 5 -11 7 0 9 7 6 16 -3 9 -6 21 -6 27 0 7 -7 3 -15
-7 -27 -36 -16 -8 16 39 17 25 35 42 41 39 6 -4 8 -3 5 3 -7 11 35 63 52 63 6
0 11 7 11 14 0 8 11 27 25 42 19 21 24 23 19 8 -7 -19 -7 -19 14 0 12 10 19
22 17 27 -3 4 9 18 27 30 18 13 39 32 47 42 7 10 20 16 28 13 9 -4 26 6 43 24
15 16 37 30 48 30 12 0 24 5 27 10 9 15 81 12 95 -4 6 -8 18 -12 27 -9 11 4
12 8 3 13 -25 15 25 20 155 15 179 -8 232 -12 247 -21 7 -5 24 -7 38 -6 19 2
22 1 10 -7 -8 -5 -11 -13 -7 -17 3 -4 13 -1 22 6 8 7 15 8 15 2 0 -5 6 -10 13
-9 37 1 47 -4 47 -27 0 -23 22 -41 34 -29 12 12 6 25 -9 19 -8 -3 -15 -1 -15
4 0 6 9 10 20 10 11 0 20 -7 20 -15 0 -8 4 -15 10 -15 5 0 6 8 3 17 -5 13 -2
15 11 10 10 -4 24 -7 32 -7 20 0 17 -28 -3 -33 -17 -4 -17 -5 0 -6 10 0 22 9
27 22 5 12 9 16 9 10 1 -7 9 -13 19 -13 15 0 15 2 2 11 -12 9 -13 11 -1 16 22
9 53 44 45 51 -3 4 -9 1 -11 -5 -3 -7 -14 -13 -26 -13 -16 0 -18 3 -9 12 7 7
12 19 11 27 0 12 -3 10 -9 -4 -7 -15 -9 -9 -8 25 1 25 -1 52 -4 60 -5 15 -25
92 -55 210 -18 75 -18 74 -42 120 -14 25 -16 37 -7 42 8 6 8 8 -1 8 -9 0 -11
10 -6 30 4 25 2 30 -13 30 -14 0 -15 -3 -6 -12 7 -7 12 -17 12 -22 0 -6 -7 -3
-15 7 -7 11 -11 25 -8 33 3 8 -1 14 -8 14 -11 0 -11 2 1 9 17 12 33 4 24 -11z
m67 -42 c5 3 9 -2 9 -10 0 -9 -7 -16 -15 -16 -9 0 -15 9 -14 23 0 12 3 16 6 9
2 -6 9 -10 14 -6z m477 -34 c-2 -19 3 -25 11 -13 6 9 11 10 15 2 4 -6 2 -11
-3 -11 -6 0 -10 -10 -10 -22 1 -17 2 -19 6 -5 2 9 8 17 13 17 20 0 40 -13 40
-26 0 -8 3 -13 8 -11 4 1 8 -1 10 -5 1 -5 0 -8 -3 -8 -3 0 -10 0 -15 0 -6 0
-15 10 -20 23 l-9 22 0 -22 c-1 -13 -6 -23 -12 -23 -5 0 -7 -5 -3 -11 4 -7 2
-10 -5 -8 -7 3 -13 9 -13 14 0 6 -4 15 -9 21 -5 6 -6 20 -2 29 4 12 3 16 -4
12 -6 -4 -14 0 -17 9 -10 25 -7 34 9 28 8 -3 14 -9 13 -12z m-313 -102 c10
-11 15 -20 11 -20 -14 0 -46 21 -46 30 0 16 16 11 35 -10z m179 -221 c-9 -16
-20 -10 -21 12 -2 17 1 18 12 9 8 -7 12 -16 9 -21z m-683 -793 c57 -14 172
-39 254 -56 246 -51 518 -109 555 -119 19 -6 78 -17 130 -26 130 -22 125 -19
139 -76 11 -43 25 -63 82 -118 37 -36 71 -78 74 -93 7 -26 5 -28 -23 -28 -17
0 -33 -4 -36 -9 -6 -10 16 -21 42 -21 51 0 176 -110 192 -169 5 -19 7 -37 5
-39 -3 -3 -30 0 -61 7 -112 22 -235 13 -469 -34 -29 -5 -31 -3 -68 74 -36 74
-109 161 -136 161 -24 0 -19 -21 9 -42 42 -30 120 -151 120 -184 0 -23 -3 -25
-22 -18 -39 13 -407 17 -473 4 -78 -15 -181 -48 -223 -72 -18 -10 -37 -18 -42
-18 -6 0 -10 31 -10 70 0 72 -13 91 -30 44 -16 -40 -12 -96 11 -170 30 -99 59
-162 76 -168 18 -7 15 18 -11 76 l-16 37 58 21 c127 48 350 81 485 73 38 -3
99 -12 135 -22 65 -16 67 -18 64 -46 -2 -17 -14 -47 -28 -67 -13 -21 -24 -42
-24 -48 0 -32 54 20 71 68 17 48 44 42 130 -31 41 -35 83 -69 94 -75 11 -6 77
-16 145 -22 131 -12 200 -30 231 -61 19 -19 26 -97 13 -146 -9 -32 -108 -73
-178 -73 -83 0 -186 -21 -186 -39 0 -11 11 -12 53 -7 94 13 232 24 239 20 4
-3 29 -41 55 -86 27 -46 87 -123 139 -178 50 -53 96 -105 101 -116 16 -32 1
-76 -34 -100 -40 -27 -161 -34 -563 -34 -236 0 -295 -3 -333 -16 -45 -15 -57
-27 -39 -38 5 -3 30 1 57 9 34 11 97 15 210 15 145 0 165 -2 186 -19 37 -30
18 -67 -61 -119 -120 -81 -208 -160 -243 -220 -18 -31 -74 -141 -125 -243 -50
-102 -98 -191 -106 -198 -19 -16 -275 -26 -346 -13 -103 19 -293 73 -344 99
-72 36 -165 103 -170 122 -24 83 -27 139 -11 216 13 62 17 126 16 279 -2 223
-14 302 -60 415 -17 41 -31 75 -31 76 0 1 13 8 29 15 16 6 32 19 35 27 5 12 1
14 -21 8 -16 -4 -51 -9 -79 -12 -46 -4 -57 -1 -110 33 -70 45 -85 61 -124 138
-19 38 -30 74 -30 100 2 123 98 226 211 226 78 0 106 -23 189 -154 41 -66 80
-121 85 -123 6 -2 18 10 27 25 26 44 33 188 14 302 -26 159 -34 188 -83 303
-81 192 -158 318 -261 430 -26 27 -39 47 -30 47 19 0 163 -50 257 -89 74 -31
111 -39 111 -22 0 19 -40 103 -70 145 -16 24 -63 80 -105 124 -41 44 -75 82
-75 85 0 26 228 15 361 -17z m-1251 4 c-8 -5 -19 -10 -25 -10 -5 0 -3 5 5 10
8 5 20 10 25 10 6 0 3 -5 -5 -10z m1817 -76 c-3 -3 -12 -4 -19 -1 -8 3 -5 6 6
6 11 1 17 -2 13 -5z m-859 -162 c-4 -2 -27 5 -49 15 l-42 18 44 5 c38 4 45 2
50 -15 3 -11 2 -21 -3 -23z m-768 -36 c0 -3 -4 -8 -10 -11 -5 -3 -10 -1 -10 4
0 6 5 11 10 11 6 0 10 -2 10 -4z m2286 -530 l0 -33 -115 -13 c-64 -7 -146 -20
-184 -30 -37 -9 -69 -14 -72 -12 -3 3 -5 18 -5 33 0 26 5 30 53 44 77 22 205
43 268 44 l55 1 0 -34z m152 18 c40 -6 42 -8 42 -41 l0 -35 -57 7 c-32 4 -61
9 -65 12 -5 2 -8 20 -8 40 0 31 2 35 23 30 12 -4 41 -9 65 -13z m-945 -50 c3
-20 -1 -27 -20 -35 -13 -5 -36 -9 -51 -9 -33 0 -210 -45 -258 -65 -40 -17 -54
-13 -54 15 0 28 173 96 280 110 95 13 97 12 103 -16z m355 6 c26 -10 32 -17
32 -42 0 -27 -3 -30 -22 -24 -60 17 -198 37 -237 34 -42 -2 -45 0 -52 26 l-8
28 127 -5 c70 -2 142 -10 160 -17z m530 -52 l104 -11 -7 -36 c-9 -49 -47 -112
-91 -151 l-38 -33 -100 7 c-90 6 -132 17 -146 36 -17 22 -143 120 -155 120 -7
0 -16 4 -20 9 -8 14 94 41 205 55 128 17 130 17 248 4z m-1803 -128 c3 -5 -1
-10 -9 -10 -9 0 -16 5 -16 10 0 6 4 10 9 10 6 0 13 -4 16 -10z m338 -220 c-3
-11 -7 -20 -9 -20 -2 0 -4 9 -4 20 0 11 4 20 9 20 5 0 7 -9 4 -20z"/>
<path d="M1945 4250 c-3 -5 1 -10 10 -10 9 0 13 5 10 10 -3 6 -8 10 -10 10 -2
0 -7 -4 -10 -10z"/>
<path d="M1920 4215 c0 -6 9 -11 20 -11 11 0 20 6 20 13 0 6 -9 11 -20 10 -11
-1 -20 -6 -20 -12z"/>
<path d="M2495 4200 c-3 -5 -1 -10 4 -10 6 0 11 5 11 10 0 6 -2 10 -4 10 -3 0
-8 -4 -11 -10z"/>
<path d="M2470 4176 c0 -9 5 -16 10 -16 6 0 10 4 10 9 0 6 -4 13 -10 16 -5 3
-10 -1 -10 -9z"/>
<path d="M2514 4169 c-3 -6 -2 -15 3 -20 5 -5 9 -1 10 11 2 22 -2 25 -13 9z"/>
<path d="M1981 4134 c0 -11 3 -14 6 -6 3 7 2 16 -1 19 -3 4 -6 -2 -5 -13z"/>
<path d="M2471 4114 c0 -11 3 -14 6 -6 3 7 2 16 -1 19 -3 4 -6 -2 -5 -13z"/>
<path d="M2556 4115 c-3 -9 -6 -24 -5 -33 0 -9 5 -4 10 12 9 32 6 48 -5 21z"/>
<path d="M2512 4095 c0 -16 2 -22 5 -12 2 9 2 23 0 30 -3 6 -5 -1 -5 -18z"/>
<path d="M2492 4090 c0 -14 2 -19 5 -12 2 6 2 18 0 25 -3 6 -5 1 -5 -13z"/>
<path d="M1982 4070 c0 -19 2 -27 5 -17 2 9 2 25 0 35 -3 9 -5 1 -5 -18z"/>
<path d="M2531 4084 c0 -11 3 -14 6 -6 3 7 2 16 -1 19 -3 4 -6 -2 -5 -13z"/>
<path d="M2210 4039 c0 -5 -4 -7 -10 -4 -5 3 -10 -3 -10 -15 0 -13 4 -19 11
-14 8 4 9 -1 4 -16 -5 -17 -4 -21 6 -17 8 2 12 11 10 18 -2 8 -4 24 -4 37 1
12 -1 22 -3 22 -2 0 -4 -5 -4 -11z"/>
<path d="M2565 4030 c-3 -5 -2 -10 4 -10 5 0 13 5 16 10 3 6 2 10 -4 10 -5 0
-13 -4 -16 -10z"/>
<path d="M2647 4033 c-4 -3 -7 -11 -7 -17 0 -6 5 -5 12 2 6 6 9 14 7 17 -3 3
-9 2 -12 -2z"/>
<path d="M1991 4014 c0 -11 3 -14 6 -6 3 7 2 16 -1 19 -3 4 -6 -2 -5 -13z"/>
<path d="M2522 4013 c9 -10 18 -25 21 -33 4 -11 6 -9 6 6 1 21 -16 44 -33 44
-5 0 -2 -8 6 -17z"/>
<path d="M2670 4020 c0 -5 5 -10 10 -10 6 0 10 5 10 10 0 6 -4 10 -10 10 -5 0
-10 -4 -10 -10z"/>
<path d="M2135 3999 c-16 -6 -16 -8 -3 -8 9 -1 18 -6 20 -13 6 -16 28 0 28 20
0 13 -2 14 -9 3 -5 -7 -10 -9 -12 -3 -2 5 -12 6 -24 1z"/>
<path d="M1982 3970 c0 -14 2 -19 5 -12 2 6 2 18 0 25 -3 6 -5 1 -5 -13z"/>
<path d="M2252 3940 c0 -14 2 -19 5 -12 2 6 2 18 0 25 -3 6 -5 1 -5 -13z"/>
<path d="M2280 3915 c0 -8 7 -15 16 -15 14 0 14 3 4 15 -7 8 -14 15 -16 15 -2
0 -4 -7 -4 -15z"/>
<path d="M2705 3900 c3 -5 8 -10 11 -10 2 0 4 5 4 10 0 6 -5 10 -11 10 -5 0
-7 -4 -4 -10z"/>
<path d="M2290 3876 c0 -2 7 -6 15 -10 8 -3 15 -1 15 4 0 6 -7 10 -15 10 -8 0
-15 -2 -15 -4z"/>
<path d="M2337 3863 c-12 -12 -7 -43 7 -43 9 0 12 8 8 25 -5 27 -6 28 -15 18z"/>
<path d="M2790 3851 c0 -12 4 -20 9 -16 5 3 11 -3 13 -12 3 -16 4 -16 10 -1 4
10 -1 23 -13 34 -18 16 -19 16 -19 -5z"/>
<path d="M1339 3849 c-7 -4 13 -9 45 -10 31 -2 56 -1 56 4 0 8 -1 8 -52 11
-20 2 -42 -1 -49 -5z"/>
<path d="M1473 3853 c9 -2 25 -2 35 0 9 3 1 5 -18 5 -19 0 -27 -2 -17 -5z"/>
<path d="M1530 3840 c0 -13 11 -13 30 0 12 8 11 10 -7 10 -13 0 -23 -4 -23
-10z"/>
<path d="M1218 3833 c7 -3 16 -2 19 1 4 3 -2 6 -13 5 -11 0 -14 -3 -6 -6z"/>
<path d="M1498 3833 c7 -3 16 -2 19 1 4 3 -2 6 -13 5 -11 0 -14 -3 -6 -6z"/>
<path d="M1580 3825 c0 -8 4 -15 10 -15 5 0 7 7 4 15 -4 8 -8 15 -10 15 -2 0
-4 -7 -4 -15z"/>
<path d="M1123 3817 c-7 -7 -19 -18 -28 -25 -18 -16 -15 -37 6 -37 8 0 16 -3
19 -7 3 -4 12 -3 20 2 13 8 13 10 -1 10 -38 0 -29 49 9 50 6 0 12 5 12 10 0
14 -22 12 -37 -3z"/>
<path d="M1191 3814 c0 -11 3 -14 6 -6 3 7 2 16 -1 19 -3 4 -6 -2 -5 -13z"/>
<path d="M2831 3804 c0 -11 3 -14 6 -6 3 7 2 16 -1 19 -3 4 -6 -2 -5 -13z"/>
<path d="M1265 3800 c-3 -5 -1 -10 4 -10 6 0 11 5 11 10 0 6 -2 10 -4 10 -3 0
-8 -4 -11 -10z"/>
<path d="M2360 3802 c0 -4 9 -15 20 -25 23 -19 26 -11 6 16 -14 18 -26 22 -26
9z"/>
<path d="M1380 3790 c0 -5 5 -10 11 -10 5 0 7 5 4 10 -3 6 -8 10 -11 10 -2 0
-4 -4 -4 -10z"/>
<path d="M1800 3780 c0 -11 4 -20 8 -20 4 0 8 9 8 20 0 11 -4 20 -8 20 -4 0
-8 -9 -8 -20z"/>
<path d="M1770 3779 c0 -5 5 -7 10 -4 6 3 10 8 10 11 0 2 -4 4 -10 4 -5 0 -10
-5 -10 -11z"/>
<path d="M2813 3756 c1 -16 7 -31 14 -33 7 -3 11 4 10 16 0 11 -4 18 -8 15 -4
-2 -10 4 -13 13 -2 10 -4 5 -3 -11z"/>
<path d="M1031 3754 c0 -11 3 -14 6 -6 3 7 2 16 -1 19 -3 4 -6 -2 -5 -13z"/>
<path d="M1918 3763 c7 -3 16 -2 19 1 4 3 -2 6 -13 5 -11 0 -14 -3 -6 -6z"/>
<path d="M1052 3751 c4 -13 18 -16 19 -4 0 4 -5 9 -11 12 -7 2 -11 -2 -8 -8z"/>
<path d="M2000 3739 c0 -5 5 -7 10 -4 6 3 10 8 10 11 0 2 -4 4 -10 4 -5 0 -10
-5 -10 -11z"/>
<path d="M2380 3743 c0 -5 5 -15 10 -23 8 -12 10 -11 10 8 0 12 -4 22 -10 22
-5 0 -10 -3 -10 -7z"/>
<path d="M2419 3708 c-2 -27 -1 -48 3 -48 12 0 14 14 8 55 l-6 40 -5 -47z"/>
<path d="M1005 3690 c-3 -5 1 -10 10 -10 9 0 13 5 10 10 -3 6 -8 10 -10 10 -2
0 -7 -4 -10 -10z"/>
<path d="M2856 3657 c-5 -9 -5 -29 0 -45 7 -25 8 -26 11 -4 3 12 3 32 0 45 -3
19 -4 20 -11 4z"/>
<path d="M2551 3644 c0 -11 3 -14 6 -6 3 7 2 16 -1 19 -3 4 -6 -2 -5 -13z"/>
<path d="M917 3633 c-4 -3 -7 -16 -6 -27 0 -19 1 -19 10 3 10 24 8 36 -4 24z"/>
<path d="M875 3579 c-11 -16 -1 -19 13 -3 7 8 8 14 3 14 -5 0 -13 -5 -16 -11z"/>
<path d="M2864 3555 c-4 -8 -3 -23 1 -32 7 -16 9 -16 13 2 2 11 9 23 14 26 5
3 2 9 -7 12 -9 4 -18 1 -21 -8z"/>
<path d="M830 3552 c0 -4 9 -13 20 -20 19 -12 20 -11 8 8 -13 20 -28 27 -28
12z"/>
<path d="M467 3533 c-4 -3 -7 -11 -7 -17 0 -6 5 -5 12 2 6 6 9 14 7 17 -3 3
-9 2 -12 -2z"/>
<path d="M520 3504 c0 -8 5 -12 10 -9 6 4 8 11 5 16 -9 14 -15 11 -15 -7z"/>
<path d="M788 3508 c7 -7 16 -7 28 0 14 8 13 10 -10 10 -18 0 -24 -4 -18 -10z"/>
<path d="M480 3493 c0 -6 -3 -19 -7 -29 -4 -12 -3 -15 5 -10 7 4 12 1 12 -8 0
-9 5 -16 10 -16 15 0 12 33 -5 56 -8 10 -15 14 -15 7z"/>
<path d="M550 3475 c0 -8 4 -15 10 -15 5 0 7 7 4 15 -4 8 -8 15 -10 15 -2 0
-4 -7 -4 -15z"/>
<path d="M630 3460 c0 -19 3 -21 12 -12 9 9 9 15 0 24 -9 9 -12 7 -12 -12z"/>
<path d="M780 3468 c0 -7 4 -19 9 -27 6 -9 9 -5 9 13 0 14 -4 26 -9 26 -5 0
-9 -6 -9 -12z"/>
<path d="M820 3460 c0 -5 5 -10 10 -10 6 0 10 5 10 10 0 6 -4 10 -10 10 -5 0
-10 -4 -10 -10z"/>
<path d="M520 3445 c0 -8 4 -15 10 -15 5 0 7 7 4 15 -4 8 -8 15 -10 15 -2 0
-4 -7 -4 -15z"/>
<path d="M2860 3445 c0 -5 5 -17 10 -25 5 -8 10 -10 10 -5 0 6 -5 17 -10 25
-5 8 -10 11 -10 5z"/>
<path d="M696 3426 c3 -9 11 -16 16 -16 13 0 5 23 -10 28 -7 2 -10 -2 -6 -12z"/>
<path d="M1793 3390 c0 -25 2 -35 4 -22 2 12 2 32 0 45 -2 12 -4 2 -4 -23z"/>
<path d="M2890 3368 c0 -18 -2 -20 -10 -8 -12 18 -12 2 0 -25 7 -17 9 -17 9
-2 1 23 18 22 26 -3 3 -11 11 -20 16 -20 14 0 11 16 -6 30 -8 7 -15 18 -15 26
0 7 -4 16 -10 19 -6 3 -10 -4 -10 -17z"/>
<path d="M515 3340 c-3 -5 -1 -10 4 -10 6 0 11 5 11 10 0 6 -2 10 -4 10 -3 0
-8 -4 -11 -10z"/>
<path d="M673 3310 c0 -25 2 -35 4 -22 2 12 2 32 0 45 -2 12 -4 2 -4 -23z"/>
<path d="M1328 3343 c6 -2 18 -2 25 0 6 3 1 5 -13 5 -14 0 -19 -2 -12 -5z"/>
<path d="M693 3305 c0 -22 2 -30 4 -17 2 12 2 30 0 40 -3 9 -5 -1 -4 -23z"/>
<path d="M1425 3330 c-3 -5 -1 -10 4 -10 6 0 11 5 11 10 0 6 -2 10 -4 10 -3 0
-8 -4 -11 -10z"/>
<path d="M1468 3333 c7 -3 16 -2 19 1 4 3 -2 6 -13 5 -11 0 -14 -3 -6 -6z"/>
<path d="M1208 3323 c6 -2 18 -2 25 0 6 3 1 5 -13 5 -14 0 -19 -2 -12 -5z"/>
<path d="M1293 3323 c9 -2 25 -2 35 0 9 3 1 5 -18 5 -19 0 -27 -2 -17 -5z"/>
<path d="M1378 3323 c6 -2 18 -2 25 0 6 3 1 5 -13 5 -14 0 -19 -2 -12 -5z"/>
<path d="M537 3306 c-3 -8 0 -22 7 -32 11 -15 12 -13 8 14 -5 36 -7 38 -15 18z"/>
<path d="M1160 3299 c0 -5 5 -7 10 -4 6 3 10 8 10 11 0 2 -4 4 -10 4 -5 0 -10
-5 -10 -11z"/>
<path d="M1465 3290 c4 -6 11 -8 16 -5 14 9 11 15 -7 15 -8 0 -12 -5 -9 -10z"/>
<path d="M2860 3286 c0 -9 0 -19 -1 -23 0 -4 4 -9 10 -11 14 -5 14 35 1 43 -5
3 -10 -1 -10 -9z"/>
<path d="M1860 3280 c0 -5 5 -10 11 -10 5 0 7 5 4 10 -3 6 -8 10 -11 10 -2 0
-4 -4 -4 -10z"/>
<path d="M2912 3260 c0 -14 2 -19 5 -12 2 6 2 18 0 25 -3 6 -5 1 -5 -13z"/>
<path d="M1878 3253 c7 -3 16 -2 19 1 4 3 -2 6 -13 5 -11 0 -14 -3 -6 -6z"/>
<path d="M410 3240 c-12 -8 -11 -10 8 -10 12 0 22 5 22 10 0 13 -11 13 -30 0z"/>
<path d="M2892 3222 c-1 -19 -6 -31 -12 -27 -6 3 -7 -1 -4 -10 11 -27 26 -1
21 36 l-4 34 -1 -33z"/>
<path d="M445 3219 c-22 -14 -25 -19 -12 -19 17 0 54 27 46 34 -2 2 -17 -5
-34 -15z"/>
<path d="M1790 3230 c0 -5 9 -10 20 -10 11 0 20 5 20 10 0 6 -9 10 -20 10 -11
0 -20 -4 -20 -10z"/>
<path d="M1738 3223 c7 -3 16 -2 19 1 4 3 -2 6 -13 5 -11 0 -14 -3 -6 -6z"/>
<path d="M1858 3223 c7 -3 16 -2 19 1 4 3 -2 6 -13 5 -11 0 -14 -3 -6 -6z"/>
<path d="M371 3201 c-13 -12 -18 -22 -11 -26 5 -3 10 -1 10 6 0 8 7 6 19 -5
11 -10 28 -16 38 -13 15 4 15 5 -3 6 -22 1 -39 25 -28 42 9 14 -1 10 -25 -10z"/>
<path d="M2225 3200 c3 -5 11 -10 16 -10 6 0 7 5 4 10 -3 6 -11 10 -16 10 -6
0 -7 -4 -4 -10z"/>
<path d="M2260 3175 c0 -16 16 -20 24 -6 3 5 -1 11 -9 15 -9 3 -15 0 -15 -9z"/>
<path d="M2035 3170 c-4 -6 3 -10 14 -10 25 0 27 6 6 13 -8 4 -17 2 -20 -3z"/>
<path d="M1138 3148 c-24 -25 -23 -28 7 -15 25 12 31 22 18 30 -5 2 -16 -4
-25 -15z"/>
<path d="M2881 3144 c0 -11 3 -14 6 -6 3 7 2 16 -1 19 -3 4 -6 -2 -5 -13z"/>
<path d="M2264 3143 c10 -11 37 -12 30 -2 -3 5 -12 9 -21 9 -9 0 -13 -3 -9 -7z"/>
<path d="M440 3136 c0 -9 30 -14 35 -6 4 6 -3 10 -14 10 -12 0 -21 -2 -21 -4z"/>
<path d="M2385 3130 c-3 -5 -1 -10 4 -10 6 0 11 5 11 10 0 6 -2 10 -4 10 -3 0
-8 -4 -11 -10z"/>
<path d="M2432 3123 c2 -10 12 -18 22 -18 11 0 21 -7 23 -15 4 -12 3 -12 -5
-2 -7 11 -10 10 -16 -3 -5 -14 -2 -16 19 -11 14 4 25 2 25 -4 0 -5 5 -10 10
-10 6 0 10 7 10 15 0 8 -7 15 -16 15 -10 0 -14 5 -10 15 3 10 1 15 -7 13 -6
-1 -23 4 -35 11 -21 11 -23 11 -20 -6z"/>
<path d="M279 3122 c11 -8 11 -10 0 -14 -9 -3 -6 -6 7 -10 12 -3 32 0 45 7
l24 13 -25 -1 c-14 0 -34 3 -45 7 -14 6 -16 5 -6 -2z"/>
<path d="M1185 3119 c-17 -6 -17 -8 -2 -8 9 -1 17 -8 17 -17 0 -8 5 -12 10 -9
6 4 8 10 5 15 -3 4 0 10 7 12 8 3 8 6 -3 10 -7 3 -23 2 -34 -3z"/>
<path d="M2340 3115 c7 -8 16 -15 20 -15 3 0 7 7 7 15 0 8 -9 15 -20 15 -16 0
-17 -3 -7 -15z"/>
<path d="M2527 3124 c-12 -12 -8 -24 7 -24 8 0 17 -6 19 -12 3 -7 6 -8 6 -2 1
16 -24 46 -32 38z"/>
<path d="M2785 3121 c-3 -6 -1 -11 4 -11 6 0 10 -6 9 -12 -4 -17 33 -11 52 9
13 14 13 14 -8 2 -20 -12 -25 -12 -37 4 -8 12 -15 14 -20 8z"/>
<path d="M365 3110 c-3 -5 1 -10 9 -10 9 0 16 5 16 10 0 6 -4 10 -9 10 -6 0
-13 -4 -16 -10z"/>
<path d="M420 3100 c0 -5 5 -10 10 -10 6 0 10 5 10 10 0 6 -4 10 -10 10 -5 0
-10 -4 -10 -10z"/>
<path d="M1148 3073 c7 -3 16 -2 19 1 4 3 -2 6 -13 5 -11 0 -14 -3 -6 -6z"/>
<path d="M980 3060 c0 -5 4 -10 9 -10 6 0 13 5 16 10 3 6 -1 10 -9 10 -9 0
-16 -4 -16 -10z"/>
<path d="M1190 3060 c-8 -5 -11 -12 -7 -17 5 -4 11 -3 15 3 4 6 14 14 22 17
13 5 13 5 0 6 -8 0 -22 -3 -30 -9z"/>
<path d="M2716 3053 c-6 -14 -5 -15 5 -6 7 7 10 15 7 18 -3 3 -9 -2 -12 -12z"/>
<path d="M2765 3060 c4 -6 11 -8 16 -5 14 9 11 15 -7 15 -8 0 -12 -5 -9 -10z"/>
<path d="M405 3050 c3 -5 13 -10 21 -10 8 0 12 5 9 10 -3 6 -13 10 -21 10 -8
0 -12 -4 -9 -10z"/>
<path d="M488 3053 c7 -3 16 -2 19 1 4 3 -2 6 -13 5 -11 0 -14 -3 -6 -6z"/>
<path d="M1100 3050 c0 -5 5 -10 10 -10 6 0 10 5 10 10 0 6 -4 10 -10 10 -5 0
-10 -4 -10 -10z"/>
<path d="M973 2995 c0 -22 2 -30 4 -17 2 12 2 30 0 40 -3 9 -5 -1 -4 -23z"/>
<path d="M990 3018 c0 -25 14 -29 28 -7 7 11 8 19 2 19 -5 0 -10 -6 -10 -12 0
-9 -4 -8 -10 2 -8 13 -10 13 -10 -2z"/>
<path d="M942 2966 c-6 -15 -12 -35 -11 -44 1 -11 4 -8 9 8 8 25 8 25 9 -4 1
-18 5 -26 10 -20 5 5 6 27 2 48 l-6 40 -13 -28z"/>
<path d="M1020 2920 c0 -11 5 -20 10 -20 6 0 10 9 10 20 0 11 -4 20 -10 20 -5
0 -10 -9 -10 -20z"/>
<path d="M1050 2909 c0 -5 5 -7 10 -4 6 3 10 1 10 -4 0 -6 -4 -11 -10 -11 -5
0 -10 -5 -10 -11 0 -5 5 -7 10 -4 6 3 10 1 10 -5 0 -7 6 -5 15 4 17 17 20 30
5 21 -5 -3 -10 1 -10 9 0 9 -7 16 -15 16 -8 0 -15 -5 -15 -11z"/>
<path d="M535 2901 c-3 -6 -16 -11 -28 -11 -16 0 -18 -3 -8 -9 11 -7 11 -9 0
-14 -10 -4 -10 -6 -1 -6 14 -1 56 38 49 45 -3 3 -8 1 -12 -5z"/>
<path d="M1106 2842 c-10 -10 -6 -20 10 -26 8 -3 12 -2 9 3 -3 5 3 11 12 13
15 3 14 5 -4 10 -12 3 -24 3 -27 0z"/>
<path d="M470 2815 c0 -23 -3 -27 -10 -15 -6 9 -10 10 -10 3 0 -16 17 -26 25
-14 3 6 12 8 20 5 17 -7 51 23 40 34 -4 4 -10 1 -12 -5 -7 -18 -24 -16 -39 5
-12 15 -13 14 -14 -13z"/>
<path d="M1146 2790 c4 -14 7 -31 7 -37 0 -7 4 -13 9 -13 13 0 8 34 -8 55 -16
19 -16 19 -8 -5z"/>
<path d="M1100 2781 c0 -12 6 -21 15 -21 8 0 15 4 15 9 0 5 -7 14 -15 21 -13
10 -15 9 -15 -9z"/>
<path d="M508 2763 c7 -3 16 -2 19 1 4 3 -2 6 -13 5 -11 0 -14 -3 -6 -6z"/>
<path d="M451 2745 c-1 -21 15 -53 22 -45 2 3 -2 19 -9 35 -10 23 -13 25 -13
10z"/>
<path d="M1193 2693 c-1 -22 6 -44 17 -56 19 -19 40 -16 40 6 0 7 -4 6 -10 -3
-15 -23 -32 7 -25 46 4 21 1 33 -8 37 -9 3 -13 -5 -14 -30z"/>
<path d="M1155 2640 c-3 -5 -1 -10 4 -10 6 0 11 5 11 10 0 6 -2 10 -4 10 -3 0
-8 -4 -11 -10z"/>
<path d="M1230 2580 c0 -5 5 -10 10 -10 6 0 10 5 10 10 0 6 -4 10 -10 10 -5 0
-10 -4 -10 -10z"/>
<path d="M410 2560 c0 -5 5 -10 10 -10 6 0 10 5 10 10 0 6 -4 10 -10 10 -5 0
-10 -4 -10 -10z"/>
<path d="M1273 2538 c-2 -18 0 -20 7 -8 12 18 13 30 2 30 -4 0 -9 -10 -9 -22z"/>
<path d="M1230 2530 c0 -11 5 -20 10 -20 6 0 10 9 10 20 0 11 -4 20 -10 20 -5
0 -10 -9 -10 -20z"/>
<path d="M1290 2490 c0 -11 4 -20 8 -20 4 0 8 9 9 20 1 11 -2 20 -8 20 -5 0
-9 -9 -9 -20z"/>
<path d="M1335 2400 c-3 -5 1 -10 9 -10 9 0 16 5 16 10 0 6 -4 10 -9 10 -6 0
-13 -4 -16 -10z"/>
<path d="M1373 2333 c-4 -10 -11 -21 -16 -24 -5 -4 -5 -9 2 -13 6 -4 11 -2 11
4 0 6 3 9 8 7 4 -3 8 6 8 19 2 28 -4 31 -13 7z"/>
<path d="M453 2285 c7 -13 14 -20 15 -14 5 14 -6 39 -17 39 -5 0 -4 -11 2 -25z"/>
<path d="M1378 2284 c-7 -11 -1 -84 7 -93 12 -12 15 11 8 55 -5 27 -12 44 -15
38z"/>
<path d="M430 2266 c0 -9 5 -16 10 -16 6 0 10 4 10 9 0 6 -4 13 -10 16 -5 3
-10 -1 -10 -9z"/>
<path d="M1248 2273 c6 -2 18 -2 25 0 6 3 1 5 -13 5 -14 0 -19 -2 -12 -5z"/>
<path d="M1186 2251 c-4 -7 -5 -15 -2 -18 9 -9 19 4 14 18 -4 11 -6 11 -12 0z"/>
<path d="M470 2235 c0 -8 4 -15 10 -15 5 0 7 7 4 15 -4 8 -8 15 -10 15 -2 0
-4 -7 -4 -15z"/>
<path d="M915 2240 c-3 -5 3 -10 15 -10 12 0 18 5 15 10 -3 6 -10 10 -15 10
-5 0 -12 -4 -15 -10z"/>
<path d="M1250 2226 c0 -8 7 -16 15 -20 10 -4 15 1 15 14 0 11 -7 20 -15 20
-8 0 -15 -6 -15 -14z"/>
<path d="M997 2219 c7 -7 15 -10 18 -7 3 3 -2 9 -12 12 -14 6 -15 5 -6 -5z"/>
<path d="M505 2210 c4 -6 11 -8 16 -5 14 9 11 15 -7 15 -8 0 -12 -5 -9 -10z"/>
<path d="M945 2190 c-3 -5 -1 -10 4 -10 6 0 11 5 11 10 0 6 -2 10 -4 10 -3 0
-8 -4 -11 -10z"/>
<path d="M567 2184 c-8 -8 1 -24 14 -24 5 0 9 7 9 15 0 15 -12 20 -23 9z"/>
<path d="M966 2174 c-7 -19 0 -34 17 -34 7 0 6 4 -3 10 -13 8 -12 10 3 10 9 0
17 7 17 15 0 20 -26 19 -34 -1z"/>
<path d="M870 2170 c0 -5 7 -7 15 -4 8 4 15 8 15 10 0 2 -7 4 -15 4 -8 0 -15
-4 -15 -10z"/>
<path d="M937 2132 c2 -10 11 -19 18 -19 10 0 11 5 4 19 -5 10 -14 18 -18 18
-5 0 -7 -8 -4 -18z"/>
<path d="M1355 2139 c-4 -6 -5 -12 -2 -15 2 -3 7 2 10 11 7 17 1 20 -8 4z"/>
<path d="M890 2130 c0 -5 5 -10 10 -10 6 0 10 5 10 10 0 6 -4 10 -10 10 -5 0
-10 -4 -10 -10z"/>
<path d="M865 2120 c3 -5 8 -10 11 -10 2 0 4 5 4 10 0 6 -5 10 -11 10 -5 0 -7
-4 -4 -10z"/>
<path d="M915 2099 c-4 -6 -14 -8 -22 -5 -9 4 -11 2 -6 -7 4 -6 7 -21 6 -32
-2 -11 0 -14 3 -7 3 6 11 12 17 12 7 0 13 11 13 25 2 27 -1 31 -11 14z"/>
<path d="M1385 2076 c-18 -14 -18 -15 -1 -10 16 6 17 3 11 -17 -6 -18 -4 -21
5 -13 6 7 10 21 8 33 -3 21 -4 21 -23 7z"/>
<path d="M680 2070 c20 -13 43 -13 35 0 -3 6 -16 10 -28 10 -18 0 -19 -2 -7
-10z"/>
<path d="M848 2073 c7 -3 16 -2 19 1 4 3 -2 6 -13 5 -11 0 -14 -3 -6 -6z"/>
<path d="M714 2029 c1 -24 3 -25 30 -18 41 12 44 19 9 19 -17 0 -33 6 -36 13
-2 6 -4 0 -3 -14z"/>
<path d="M745 1980 c-3 -5 -1 -10 4 -10 6 0 11 5 11 10 0 6 -2 10 -4 10 -3 0
-8 -4 -11 -10z"/>
<path d="M790 1980 c8 -5 20 -10 25 -10 6 0 3 5 -5 10 -8 5 -19 10 -25 10 -5
0 -3 -5 5 -10z"/>
<path d="M867 1967 c-18 -18 -18 -19 2 -12 14 4 21 2 21 -6 0 -7 2 -10 5 -7 3
3 2 14 -2 24 -8 19 -8 19 -26 1z"/>
<path d="M1105 2040 c-32 -13 -63 -53 -67 -85 -4 -42 21 -39 36 4 11 34 39 61
52 49 3 -4 -1 -17 -10 -30 -27 -38 -21 -108 14 -156 36 -50 60 -64 106 -60 44
4 45 21 2 29 -50 8 -74 25 -92 63 -23 50 -21 92 9 121 13 14 31 25 40 25 18 0
69 -46 76 -69 3 -8 10 -11 16 -8 14 9 -1 59 -22 77 -15 13 -114 50 -130 49 -5
0 -19 -4 -30 -9z"/>
</g>
</svg>
