<?xml version="1.0" standalone="no"?>
<!DOCTYPE svg PUBLIC "-//W3C//DTD SVG 20010904//EN"
 "http://www.w3.org/TR/2001/REC-SVG-20010904/DTD/svg10.dtd">
<svg version="1.0" xmlns="http://www.w3.org/2000/svg"
 width="750.000000pt" height="422.000000pt" viewBox="0 0 750.000000 422.000000"
 preserveAspectRatio="xMidYMid meet">

<g transform="translate(0.000000,422.000000) scale(0.100000,-0.100000)"
fill="#000000" stroke="none">
<path d="M0 2110 l0 -2110 1104 0 c874 0 1106 3 1110 13 5 9 7 9 12 0 4 -10
291 -13 1383 -13 1357 0 1378 0 1396 20 14 16 26 18 64 13 25 -3 51 -12 57
-19 9 -12 200 -14 1193 -14 l1181 0 0 2110 0 2110 -3750 0 -3750 0 0 -2110z
m4641 1864 c12 -14 11 -16 -5 -13 -11 2 -21 10 -24 17 -5 17 13 15 29 -4z
m-731 -59 c0 -2 -9 -9 -20 -15 -12 -6 -20 -7 -20 -1 0 5 8 12 18 14 9 3 18 5
20 6 1 0 2 -1 2 -4z m1087 -21 c-3 -3 -12 -4 -19 -1 -8 3 -5 6 6 6 11 1 17 -2
13 -5z m-1137 -12 c0 -13 -12 -22 -22 -16 -10 6 -1 24 13 24 5 0 9 -4 9 -8z
m-135 -102 c-3 -5 -10 -10 -16 -10 -5 0 -9 5 -9 10 0 6 7 10 16 10 8 0 12 -4
9 -10z m665 -545 c75 -21 86 -28 103 -64 13 -27 34 -31 29 -4 -2 10 3 14 15
11 10 -2 17 -8 16 -13 -1 -6 6 -18 14 -27 10 -12 12 -18 4 -18 -7 0 -9 -10 -5
-27 4 -19 3 -24 -4 -15 -17 24 -24 -53 -11 -117 10 -46 10 -66 1 -85 -8 -17
-8 -27 -1 -32 7 -4 5 -12 -4 -22 -7 -10 -22 -45 -32 -80 -21 -71 -29 -81 -45
-52 -6 11 -17 20 -24 20 -10 0 -12 -16 -8 -72 2 -40 8 -80 13 -89 10 -19 -10
-42 -25 -30 -15 12 -220 44 -272 43 -24 -1 -53 -6 -63 -12 -11 -5 -41 -10 -67
-10 l-47 0 21 23 c23 24 30 71 12 82 -5 3 -10 -3 -10 -15 0 -12 -5 -18 -10
-15 -6 3 -13 -1 -16 -9 -12 -32 -42 -15 -34 19 7 33 21 134 21 157 0 15 4 30
9 33 6 4 10 17 10 30 0 13 5 27 10 30 6 3 10 16 10 28 0 25 28 109 38 117 10
7 33 69 39 103 3 15 8 27 12 27 4 0 23 15 43 33 44 39 73 57 93 57 8 0 15 5
15 11 0 7 10 9 24 7 14 -3 31 -1 38 3 7 4 15 5 18 0 3 -4 34 -15 70 -26z
m-195 -785 c16 -18 16 -20 1 -26 -9 -3 -15 -14 -14 -23 3 -13 -5 -15 -47 -13
-27 2 -54 7 -59 12 -5 5 1 6 14 3 17 -4 21 -2 18 8 -5 15 39 59 58 59 6 0 19
-9 29 -20z m353 -75 c14 -30 3 -98 -26 -166 -21 -49 -69 -225 -74 -274 -2 -20
-12 -34 -30 -44 -24 -14 -28 -14 -45 1 -27 24 -109 30 -85 6 31 -31 -4 -48
-65 -32 -33 9 -28 32 13 70 19 19 42 54 51 79 15 46 15 46 -12 71 -21 19 -25
28 -16 37 6 6 11 30 11 53 0 41 1 42 52 60 28 11 55 26 59 34 5 8 20 41 34 73
l26 57 48 0 c41 0 49 -3 59 -25z m-771 -127 c-2 -18 -4 -4 -4 32 0 36 2 50 4
33 2 -18 2 -48 0 -65z m390 66 c9 -24 -17 -35 -74 -31 -29 2 -53 2 -53 0 0 -3
13 -23 28 -46 33 -49 52 -102 52 -142 0 -33 -69 -105 -101 -105 -51 0 -97 58
-76 95 11 19 17 86 16 183 l0 44 33 -8 c46 -10 69 -8 87 11 21 20 80 20 88 -1z
m-374 -187 c-3 -18 -14 -45 -25 -62 l-19 -30 5 35 c12 70 14 79 21 90 12 20
24 -1 18 -33z m587 -475 c36 -17 73 -33 83 -36 24 -8 22 -36 -4 -36 -11 0 -29
-4 -39 -10 -20 -11 -80 5 -80 21 0 5 -9 9 -20 9 -11 0 -20 6 -20 14 0 7 -9 16
-20 19 -13 3 -20 14 -20 30 0 27 16 38 40 27 8 -4 44 -21 80 -38z m-200 -69
c0 -18 7 -45 16 -58 12 -18 13 -25 4 -25 -10 0 -10 -3 0 -15 9 -11 9 -19 2
-28 -7 -8 -7 -18 -2 -27 7 -11 10 -12 10 -2 0 10 3 10 15 -2 8 -8 15 -26 15
-40 0 -14 5 -28 10 -31 24 -15 -13 -35 -64 -35 -59 1 -81 21 -92 88 -5 35 -3
42 16 52 20 11 21 16 15 76 -6 54 -5 68 10 84 24 27 45 9 45 -37z m-424 -213
c-19 -44 -22 -12 -3 39 9 25 13 29 15 15 2 -11 -4 -35 -12 -54z m-999 -42 c13
-14 13 -20 3 -33 -7 -8 -18 -15 -25 -15 -11 0 -35 -40 -35 -60 0 -5 -13 -28
-28 -52 -16 -24 -35 -59 -42 -78 -7 -19 -20 -43 -28 -52 -8 -10 -15 -35 -16
-55 l-1 -38 47 0 c26 0 52 -5 58 -11 15 -15 -5 -67 -34 -84 -35 -21 -130 -114
-158 -152 -12 -18 -36 -46 -53 -62 -39 -38 -65 -77 -65 -98 0 -26 66 -35 103
-14 63 36 116 3 77 -47 -12 -14 -31 -29 -43 -33 -12 -4 -34 -15 -48 -25 -14
-10 -37 -21 -52 -24 -15 -4 -36 -19 -46 -34 -10 -14 -39 -41 -63 -59 -56 -42
-84 -109 -74 -181 3 -27 2 -59 -3 -72 -8 -23 -9 -23 -25 16 -11 25 -16 57 -13
85 7 83 47 245 71 290 13 25 26 64 30 88 3 24 11 51 16 60 6 9 28 76 49 147
21 72 48 150 59 175 11 25 25 61 31 80 16 51 48 100 66 100 8 0 14 3 13 8 -5
16 24 53 48 62 14 6 23 14 19 19 -3 6 4 19 16 29 11 11 28 35 37 53 9 19 29
40 45 47 20 10 27 20 27 41 0 35 14 50 18 19 2 -12 11 -31 19 -40z m-1977 -72
c0 -18 -9 -69 -20 -112 -10 -44 -24 -122 -30 -174 -11 -100 -29 -185 -61 -285
-23 -74 -44 -85 -146 -82 -57 1 -73 5 -74 17 -5 83 -10 138 -14 155 -2 12 2
34 11 50 11 21 12 30 3 36 -13 8 -28 77 -29 135 0 56 19 79 67 79 28 0 38 4
38 16 0 29 49 89 83 101 17 7 32 16 32 20 0 5 10 13 23 18 29 13 56 31 79 53
25 23 38 14 38 -27z m2034 -19 c8 -21 6 -31 -7 -45 -16 -15 -19 -15 -27 -2
-11 17 -13 64 -3 74 12 12 28 0 37 -27z m2252 -221 c-18 -44 -36 -54 -53 -31
-17 24 -8 54 26 82 26 21 26 21 33 2 5 -12 2 -34 -6 -53z m-2186 39 c12 -31
16 -98 7 -112 -4 -6 -28 -18 -54 -27 -58 -20 -77 -8 -67 41 6 30 78 123 95
123 5 0 14 -11 19 -25z m2080 -247 c0 -38 -12 -68 -25 -68 -24 0 -34 57 -13
78 19 19 38 14 38 -10z m-2846 -118 c35 13 79 13 71 0 -3 -5 -19 -10 -34 -10
-17 0 -40 -11 -58 -29 -30 -28 -32 -29 -124 -25 -92 3 -239 20 -247 29 -2 2
-1 8 3 14 4 7 53 11 133 11 122 -1 201 5 211 15 2 3 8 1 11 -5 5 -8 15 -8 34
0z m2596 -302 c6 -50 5 -52 -40 -48 -30 2 -27 0 -35 30 -7 31 22 71 50 68 16
-2 21 -13 25 -50z m533 -11 c-3 -6 -11 -3 -19 8 -7 10 -11 22 -7 28 3 6 11 3
19 -8 7 -10 11 -22 7 -28z m-379 -83 c8 -20 -12 -56 -27 -51 -17 5 -21 48 -5
58 19 12 25 11 32 -7z m416 -86 c0 -5 -7 -8 -15 -8 -15 0 -20 21 -8 33 7 7 23
-11 23 -25z"/>
<path d="M4530 3120 c0 -11 5 -20 10 -20 6 0 10 9 10 20 0 11 -4 20 -10 20 -5
0 -10 -9 -10 -20z"/>
<path d="M698 1080 c-19 -18 -24 -75 -8 -85 10 -6 33 68 28 89 -2 10 -8 9 -20
-4z"/>
<path d="M592 1070 c0 -14 2 -19 5 -12 2 6 2 18 0 25 -3 6 -5 1 -5 -13z"/>
<path d="M556 1054 c-9 -23 -7 -54 2 -54 5 0 9 16 10 35 1 38 -2 44 -12 19z"/>
<path d="M682 940 c0 -14 2 -19 5 -12 2 6 2 18 0 25 -3 6 -5 1 -5 -13z"/>
</g>
</svg>
