<?xml version="1.0" standalone="no"?>
<!DOCTYPE svg PUBLIC "-//W3C//DTD SVG 20010904//EN"
 "http://www.w3.org/TR/2001/REC-SVG-20010904/DTD/svg10.dtd">
<svg version="1.0" xmlns="http://www.w3.org/2000/svg"
 width="522.000000pt" height="429.000000pt" viewBox="0 0 522.000000 429.000000"
 preserveAspectRatio="xMidYMid meet">
<metadata>
Created by potrace 1.16, written by Peter Selinger 2001-2019
</metadata>
<g transform="translate(0.000000,429.000000) scale(0.100000,-0.100000)"
fill="#000000" stroke="none">
<path d="M10 4267 c0 -12 16 -39 36 -59 20 -21 33 -42 29 -49 -4 -6 -2 -21 5
-34 11 -20 10 -27 -9 -51 -11 -15 -21 -32 -21 -39 0 -7 -7 -18 -15 -25 -19
-16 -19 -1 -1 36 8 15 13 31 10 36 -3 4 0 17 6 28 9 16 8 20 -5 20 -8 0 -15
-5 -15 -11 0 -6 -7 -9 -15 -5 -13 4 -15 -10 -15 -96 0 -98 1 -101 19 -84 10 9
24 14 32 11 8 -3 27 4 43 14 19 13 34 16 45 11 44 -24 130 -58 158 -65 17 -3
37 -13 43 -20 6 -8 32 -22 56 -31 35 -13 48 -14 57 -5 9 9 9 16 0 30 -22 35
25 45 54 11 22 -25 33 -25 33 -2 0 17 28 52 42 52 12 0 18 -53 8 -65 -13 -15
1 -50 22 -58 10 -3 11 -9 1 -26 -7 -11 -13 -26 -13 -32 0 -6 -9 -24 -20 -40
-20 -27 -24 -28 -88 -26 -54 3 -68 6 -70 20 -2 10 -13 17 -28 17 -20 0 -24 -5
-24 -29 0 -25 -6 -31 -36 -41 -20 -7 -49 -26 -64 -44 l-28 -31 -29 21 c-15 11
-36 23 -46 27 -10 4 -16 11 -13 16 6 9 -27 21 -78 27 -16 2 -39 11 -52 18
l-22 15 -1 -100 c-1 -77 2 -101 13 -105 8 -3 17 -15 20 -27 6 -23 -11 -50 -25
-41 -5 3 -9 -188 -9 -450 0 -251 4 -456 9 -456 4 0 25 12 46 26 28 19 40 22
46 13 10 -17 0 -39 -20 -39 -13 0 -13 -2 -2 -9 11 -7 10 -11 -5 -20 -13 -9
-15 -14 -7 -17 24 -10 13 -21 -16 -16 -17 2 -33 13 -39 25 -8 16 -11 -356 -11
-1235 l-1 -1258 634 0 633 0 6 67 c4 38 7 89 7 115 0 61 50 138 88 138 14 0
30 7 37 17 8 11 18 14 31 8 27 -12 74 -14 74 -4 0 5 -5 9 -11 9 -5 0 -7 5 -4
10 7 12 75 13 91 2 6 -4 14 -14 18 -22 3 -8 4 -3 3 12 -3 17 1 29 10 33 19 7
39 -5 25 -14 -6 -3 19 -5 54 -5 62 2 64 1 59 -19 -5 -19 -4 -19 9 3 9 14 15
33 16 43 0 18 45 45 56 34 4 -4 1 -13 -6 -22 -10 -12 -10 -18 0 -30 7 -8 17
-12 22 -9 5 3 24 3 43 0 41 -8 64 -51 45 -87 -10 -17 -9 -30 0 -60 12 -35 14
-37 26 -21 10 14 15 15 26 4 22 -22 30 -164 10 -184 -10 -10 -12 0 -8 56 5 60
4 67 -10 55 -11 -9 -14 -27 -12 -68 l3 -56 1623 -3 1622 -2 0 2145 0 2145
-1206 0 -1206 0 4 -130 3 -130 -37 0 c-20 0 -43 6 -50 13 -35 33 -54 41 -116
48 -185 21 -233 28 -243 34 -9 6 -260 19 -344 19 -27 -1 -55 -9 -120 -35 -11
-4 -45 -10 -75 -12 -63 -5 -138 -30 -194 -65 -21 -13 -57 -32 -80 -41 -23 -10
-47 -26 -55 -35 -7 -9 -19 -16 -26 -16 -8 0 -26 -10 -42 -23 -15 -12 -44 -30
-63 -40 -19 -9 -43 -22 -52 -29 -13 -9 -37 -9 -110 1 -51 7 -102 17 -113 21
-11 4 -37 5 -58 2 -29 -3 -41 -11 -52 -32 -8 -16 -20 -34 -28 -42 -7 -7 -25
-30 -41 -50 -26 -35 -33 -38 -76 -38 -50 0 -77 18 -67 45 4 8 2 17 -3 20 -6 4
-10 15 -10 26 0 10 -3 19 -7 19 -5 0 -9 17 -9 38 -2 54 -26 112 -46 112 -9 0
-20 5 -24 11 -3 6 -14 9 -24 6 -13 -3 -17 0 -13 9 3 10 -3 14 -20 14 -14 0
-24 -5 -23 -12 0 -7 -2 -14 -6 -15 -10 -4 -10 0 -2 41 11 63 -33 112 -119 131
-17 3 -35 18 -47 38 -10 17 -29 47 -42 64 l-23 32 -137 1 c-100 0 -138 -3
-141 -12 -4 -10 -7 -10 -18 0 -22 20 -49 15 -49 -11z m2385 -798 c6 -1 22 1
37 5 30 9 101 -19 95 -38 -2 -6 -20 -14 -40 -19 -39 -9 -48 -26 -36 -70 6 -21
4 -30 -8 -34 -14 -5 -13 -7 1 -15 24 -14 19 -35 -10 -42 -32 -8 -29 -40 4 -44
35 -5 20 -27 -19 -27 -19 0 -41 -4 -49 -9 -8 -6 -29 -9 -47 -8 -18 2 -33 -1
-33 -5 0 -11 -91 -9 -115 3 -11 5 -79 8 -159 6 l-138 -4 6 -39 c6 -38 -6 -54
-18 -24 -4 11 -13 14 -30 9 -14 -3 -39 1 -60 11 -19 9 -40 14 -46 10 -5 -3
-19 -3 -31 0 -19 6 -19 8 -4 24 14 16 14 19 0 31 -8 7 -15 21 -15 31 0 11 -5
19 -11 19 -5 0 -8 4 -4 9 3 5 1 12 -5 16 -5 3 -10 20 -10 36 0 22 7 32 25 41
14 6 25 15 25 19 0 15 89 69 117 71 15 1 34 6 41 11 30 23 121 32 319 31 114
-1 213 -3 218 -5z m-611 -650 c14 -11 26 -25 26 -30 0 -18 -65 -70 -81 -66 -9
3 -24 -4 -33 -14 -9 -11 -22 -19 -30 -19 -8 0 -16 -3 -18 -7 -1 -5 -19 -20
-38 -34 -20 -15 -46 -49 -59 -77 -20 -43 -29 -51 -58 -57 -28 -5 -33 -9 -28
-26 5 -14 2 -20 -7 -18 -7 1 -29 1 -48 0 -24 -1 -31 -4 -21 -10 16 -11 7 -43
-11 -39 -23 5 -98 -45 -98 -64 0 -19 -26 -36 -37 -24 -4 3 -1 16 5 29 13 26
27 70 25 78 -1 3 10 4 25 2 28 -3 39 9 111 116 34 51 166 176 201 191 17 7 30
17 30 22 0 5 14 22 30 38 37 36 76 39 114 9z m776 -76 c2 -2 -2 -8 -10 -13
-10 -7 -11 -10 -2 -10 6 0 12 -6 12 -13 0 -16 -35 -19 -79 -7 -25 7 -41 5 -63
-6 -17 -9 -41 -13 -53 -10 -13 3 -27 1 -31 -5 -3 -6 -14 -9 -24 -6 -10 3 -36
-6 -57 -19 -28 -17 -53 -23 -95 -24 -32 0 -58 3 -58 8 1 22 42 51 95 67 33 10
64 21 68 25 5 4 27 3 49 -3 33 -8 47 -7 72 6 42 22 155 29 176 10z m545 -405
c16 -18 28 -36 27 -41 -3 -12 39 -91 54 -100 8 -4 14 -14 14 -22 0 -7 12 -27
26 -44 18 -21 27 -47 31 -85 5 -52 4 -55 -18 -60 -55 -11 -96 -18 -129 -20
-19 -2 -42 -5 -50 -8 -52 -19 -94 -25 -139 -20 -28 2 -51 8 -51 12 0 7 25 30
80 73 8 7 25 11 37 9 15 -2 23 4 28 19 11 34 9 113 -3 135 -8 14 -6 21 5 29
12 9 16 31 17 83 1 65 3 72 21 72 11 0 34 -15 50 -32z m-1363 -587 c24 -23 31
-63 16 -84 -14 -19 -23 -20 -106 -13 -28 2 -50 0 -47 -4 3 -5 1 -11 -5 -15 -6
-4 -9 12 -7 44 1 32 7 51 14 51 7 0 16 6 20 14 20 36 82 40 115 7z m-588 -407
c12 -5 13 -10 5 -26 -17 -33 5 -238 32 -290 5 -9 11 -34 14 -55 6 -34 4 -39
-21 -50 -31 -15 -48 -2 -40 29 5 24 -43 58 -81 58 -16 0 -33 3 -37 8 -4 4 -11
7 -14 7 -4 0 -18 8 -31 17 l-24 17 26 35 c15 19 27 42 27 51 0 8 10 32 23 53
12 20 28 50 35 66 14 32 53 85 64 85 3 1 13 -2 22 -5z m-889 -828 c11 -4 34
-13 50 -19 35 -12 104 -59 105 -69 0 -5 -5 -8 -11 -8 -5 0 -8 -4 -5 -8 6 -11
-63 -5 -89 7 -11 5 -29 12 -39 15 -24 8 -11 23 24 28 21 3 17 6 -24 21 -55 19
-116 23 -116 6 0 -5 -4 -8 -9 -4 -5 3 -15 -1 -23 -8 -25 -24 -101 -58 -110
-49 -5 5 28 27 79 53 86 43 124 51 168 35z"/>
</g>
</svg>
